<?xml version="1.0" encoding="utf-8"?>
<!-- Generator: Adobe Illustrator 23.0.2, SVG Export Plug-In . SVG Version: 6.00 Build 0)  -->
<svg version="1.1" id="レイヤー_1" xmlns="http://www.w3.org/2000/svg" xmlns:xlink="http://www.w3.org/1999/xlink" x="0px"
	 y="0px" viewBox="0 0 491.4 790.6" style="enable-background:new 0 0 491.4 790.6;" xml:space="preserve">
<path d="M32.2,252.2c7.2,0,13,5.8,13,13c0,7.2-5.8,13-13,13c-5.6,0-10.4-3.6-12.2-8.7h-9c2,9.9,10.7,17.3,21.2,17.3
	c11.9,0,21.6-9.7,21.6-21.6c0-11.9-9.7-21.6-21.6-21.6c-10.5,0-19.2,7.4-21.2,17.3h9C21.7,255.8,26.5,252.2,32.2,252.2z"/>
<path d="M129.6,256c5.1-5.1,13.3-5.1,18.4,0c5.1,5.1,5.1,13.3,0,18.4c-4,4-9.9,4.8-14.8,2.5l-6.3,6.3c8.4,5.6,19.8,4.6,27.2-2.8
	c8.4-8.4,8.4-22.1,0-30.6c-8.4-8.4-22.1-8.4-30.6,0c-7.4,7.4-8.3,18.8-2.8,27.2l6.3-6.3C124.8,266,125.6,260,129.6,256z"/>
<path d="M258.6,264.9c0,7.2-5.8,13-13,13c-7.2,0-13-5.8-13-13c0-5.6,3.6-10.4,8.7-12.2v-9c-9.9,2-17.3,10.7-17.3,21.2
	c0,11.9,9.7,21.6,21.6,21.6c11.9,0,21.6-9.7,21.6-21.6c0-10.5-7.4-19.2-17.3-21.2v9C255,254.4,258.6,259.2,258.6,264.9z"/>
<path d="M350.7,278c-7.2,0-13-5.8-13-13c0-7.2,5.8-13,13-13c5.6,0,10.4,3.6,12.2,8.7h9c-2-9.9-10.7-17.3-21.2-17.3
	c-11.9,0-21.6,9.7-21.6,21.6c0,11.9,9.7,21.6,21.6,21.6c10.5,0,19.2-7.4,21.2-17.3h-9C361.1,274.4,356.3,278,350.7,278z"/>
<path d="M471.6,264.8c0,7.2-5.8,13-13,13c-7.2,0-13-5.8-13-13c0-5.6,3.6-10.4,8.7-12.2v-9c-9.9,2-17.3,10.7-17.3,21.2
	c0,11.9,9.7,21.6,21.6,21.6c11.9,0,21.6-9.7,21.6-21.6c0-10.5-7.4-19.2-17.3-21.2l0,9C468,254.4,471.6,259.2,471.6,264.8z"/>
<path d="M458.8,348.4c-5.6,0-10.1-4.5-10.1-10.1c0-5.6,4.5-10.1,10.1-10.1c4.4,0,8.1,2.8,9.5,6.7h7c-1.6-7.7-8.4-13.5-16.5-13.5
	c-9.3,0-16.9,7.6-16.9,16.9c0,9.3,7.6,16.9,16.9,16.9c8.2,0,15-5.8,16.5-13.5h-7C466.9,345.6,463.2,348.4,458.8,348.4z"/>
<path d="M362,338.1c0,5.6-4.5,10.1-10.1,10.1c-5.6,0-10.1-4.5-10.1-10.1c0-4.4,2.8-8.1,6.7-9.5v-7c-7.7,1.6-13.5,8.4-13.5,16.5
	c0,9.3,7.6,16.9,16.9,16.9c9.3,0,16.9-7.6,16.9-16.9c0-8.2-5.8-15-13.5-16.5v7C359.2,329.9,362,333.7,362,338.1z"/>
<path d="M235.4,338.5c0-5.6,4.5-10.1,10.1-10.1c5.6,0,10.1,4.5,10.1,10.1c0,4.4-2.8,8.1-6.7,9.5v7c7.7-1.6,13.5-8.4,13.5-16.5
	c0-9.3-7.6-16.9-16.9-16.9c-9.3,0-16.9,7.6-16.9,16.9c0,8.2,5.8,15,13.5,16.5v-7C238.2,346.6,235.4,342.9,235.4,338.5z"/>
<path d="M146.1,345.4c-4,4-10.4,4-14.3,0c-4-4-4-10.4,0-14.3c3.1-3.1,7.8-3.8,11.5-2l4.9-4.9c-6.5-4.3-15.5-3.6-21.2,2.1
	c-6.6,6.6-6.6,17.3,0,23.9c6.6,6.6,17.3,6.6,23.9,0c5.8-5.8,6.5-14.7,2.1-21.2l-4.9,4.9C149.9,337.6,149.2,342.3,146.1,345.4z"/>
<path d="M25.1,331.3c4-4,10.4-4,14.3,0c4,4,4,10.4,0,14.3c-3.1,3.1-7.8,3.8-11.5,2l-4.9,4.9c6.5,4.3,15.5,3.6,21.2-2.1
	c6.6-6.6,6.6-17.3,0-23.9c-6.6-6.6-17.3-6.6-23.9,0c-5.8,5.8-6.5,14.7-2.1,21.2l4.9-4.9C21.4,339.1,22,334.4,25.1,331.3z"/>
<path d="M130.9,401c0-4.4,3.5-7.9,7.9-7.9c4.4,0,7.9,3.5,7.9,7.9c0,3.4-2.2,6.3-5.3,7.4l0,5.5c6-1.2,10.5-6.5,10.5-12.9
	c0-7.3-5.9-13.1-13.1-13.1c-7.3,0-13.1,5.9-13.1,13.1c0,6.4,4.5,11.7,10.5,12.9l0-5.5C133.1,407.4,130.9,404.5,130.9,401z"/>
<path d="M32.5,408.7c-4.4,0-7.9-3.5-7.9-7.9c0-4.4,3.5-7.9,7.9-7.9c3.4,0,6.3,2.2,7.4,5.3h5.5c-1.2-6-6.5-10.5-12.9-10.5
	c-7.3,0-13.1,5.9-13.1,13.1c0,7.3,5.9,13.1,13.1,13.1c6.4,0,11.7-4.5,12.9-10.5H40C38.9,406.5,36,408.7,32.5,408.7z"/>
<path d="M245.4,392.9c4.4,0,7.9,3.5,7.9,7.9c0,4.4-3.5,7.9-7.9,7.9c-3.4,0-6.3-2.2-7.4-5.3h-5.5c1.2,6,6.5,10.5,12.9,10.5
	c7.3,0,13.1-5.9,13.1-13.1c0-7.3-5.9-13.1-13.1-13.1c-6.4,0-11.7,4.5-12.9,10.5h5.5C239.1,395.1,242,392.9,245.4,392.9z"/>
<path d="M357.3,395.1c3.1,3.1,3.1,8.1,0,11.2c-3.1,3.1-8.1,3.1-11.2,0c-2.4-2.4-2.9-6-1.5-9l-3.9-3.9c-3.4,5.1-2.8,12,1.7,16.5
	c5.1,5.1,13.5,5.1,18.6,0c5.1-5.1,5.1-13.5,0-18.6c-4.5-4.5-11.4-5.1-16.5-1.7l3.9,3.9C351.3,392.2,354.9,392.7,357.3,395.1z"/>
<path d="M453,395.3c3.1-3.1,8.1-3.1,11.2,0c3.1,3.1,3.1,8.1,0,11.2c-2.4,2.4-6,2.9-9,1.5l-3.9,3.9c5.1,3.4,12,2.8,16.5-1.7
	c5.1-5.1,5.1-13.5,0-18.6c-5.1-5.1-13.5-5.1-18.6,0c-4.5,4.5-5.1,11.4-1.7,16.5l3.9-3.9C450.1,401.4,450.6,397.7,453,395.3z"/>
<path d="M465,456.3c0,3.5-2.9,6.4-6.4,6.4c-3.5,0-6.4-2.9-6.4-6.4c0-2.8,1.8-5.2,4.3-6l0-4.4c-4.9,1-8.5,5.3-8.5,10.5
	c0,5.9,4.8,10.7,10.7,10.7c5.9,0,10.7-4.8,10.7-10.7c0-5.2-3.7-9.5-8.5-10.5v4.4C463.2,451.1,465,453.5,465,456.3z"/>
<path d="M358.1,456.4c0,3.5-2.9,6.4-6.4,6.4c-3.5,0-6.4-2.9-6.4-6.4c0-2.8,1.8-5.2,4.3-6l0-4.4c-4.9,1-8.5,5.3-8.5,10.5
	c0,5.9,4.8,10.7,10.7,10.7c5.9,0,10.7-4.8,10.7-10.7c0-5.2-3.7-9.5-8.5-10.5v4.4C356.3,451.2,358.1,453.6,358.1,456.4z"/>
<path d="M252,456.3c0,3.5-2.9,6.4-6.4,6.4c-3.5,0-6.4-2.9-6.4-6.4c0-2.8,1.8-5.2,4.3-6l0-4.4c-4.9,1-8.5,5.3-8.5,10.5
	c0,5.9,4.8,10.7,10.7,10.7c5.9,0,10.7-4.8,10.7-10.7c0-5.2-3.7-9.5-8.5-10.5v4.4C250.2,451.2,252,453.5,252,456.3z"/>
<path d="M139,462.9c-3.5,0-6.4-2.9-6.4-6.4c0-3.5,2.9-6.4,6.4-6.4c2.8,0,5.2,1.8,6,4.3l4.4,0c-1-4.9-5.3-8.5-10.5-8.5
	c-5.9,0-10.7,4.8-10.7,10.7c0,5.9,4.8,10.7,10.7,10.7c5.2,0,9.5-3.7,10.5-8.5h-4.4C144.2,461.1,141.8,462.9,139,462.9z"/>
<path d="M26,456.6c0-3.5,2.9-6.4,6.4-6.4c3.5,0,6.4,2.9,6.4,6.4c0,2.8-1.8,5.2-4.3,6l0,4.4c4.9-1,8.5-5.3,8.5-10.5
	c0-5.9-4.8-10.7-10.7-10.7c-5.9,0-10.7,4.8-10.7,10.7c0,5.2,3.7,9.5,8.5,10.5v-4.4C27.8,461.7,26,459.3,26,456.6z"/>
<path d="M36.5,513.8c-2.3,2.3-6,2.3-8.2,0c-2.3-2.3-2.3-6,0-8.2c1.8-1.8,4.5-2.2,6.6-1.1l2.8-2.8c-3.8-2.5-8.9-2.1-12.2,1.2
	c-3.8,3.8-3.8,9.9,0,13.7c3.8,3.8,9.9,3.8,13.7,0c3.3-3.3,3.7-8.5,1.2-12.2l-2.8,2.8C38.7,509.3,38.3,512,36.5,513.8z"/>
<path d="M32.3,554.9c2.8,0,5.1,2.3,5.1,5.1c0,2.8-2.3,5.1-5.1,5.1c-2.2,0-4.1-1.4-4.8-3.4H24c0.8,3.8,4.2,6.7,8.3,6.7
	c4.7,0,8.4-3.8,8.4-8.4c0-4.7-3.8-8.4-8.4-8.4c-4.1,0-7.5,2.9-8.3,6.7l3.5,0C28.2,556.3,30.1,554.9,32.3,554.9z"/>
<path d="M143.9,559.8c0,2.8-2.3,5.1-5.1,5.1c-2.8,0-5.1-2.3-5.1-5.1c0-2.2,1.4-4.1,3.4-4.8v-3.5c-3.8,0.8-6.7,4.2-6.7,8.3
	c0,4.7,3.8,8.4,8.4,8.4c4.7,0,8.4-3.8,8.4-8.4c0-4.1-2.9-7.5-6.7-8.3l0,3.5C142.5,555.7,143.9,557.6,143.9,559.8z"/>
<path d="M242,556.4c2-2,5.2-2,7.2,0c2,2,2,5.2,0,7.2c-1.6,1.6-3.9,1.9-5.7,1l-2.5,2.5c3.3,2.2,7.7,1.8,10.6-1.1
	c3.3-3.3,3.3-8.6,0-11.9c-3.3-3.3-8.6-3.3-11.9,0c-2.9,2.9-3.2,7.3-1.1,10.6l2.5-2.5C240.1,560.2,240.5,557.9,242,556.4z"/>
<path d="M354.9,563.4c-2,2-5.2,2-7.2,0c-2-2-2-5.2,0-7.2c1.6-1.6,3.9-1.9,5.8-1l2.5-2.5c-3.3-2.2-7.7-1.8-10.6,1.1
	c-3.3,3.3-3.3,8.6,0,11.9c3.3,3.3,8.6,3.3,11.9,0c2.9-2.9,3.2-7.3,1.1-10.6l-2.5,2.5C356.8,559.5,356.5,561.8,354.9,563.4z"/>
<path d="M453.5,559.9c0-2.8,2.3-5.1,5.1-5.1c2.8,0,5.1,2.3,5.1,5.1c0,2.2-1.4,4.1-3.4,4.8v3.5c3.8-0.8,6.7-4.2,6.7-8.3
	c0-4.7-3.8-8.4-8.4-8.4c-4.7,0-8.4,3.8-8.4,8.4c0,4.1,2.9,7.5,6.7,8.3v-3.5C454.9,564,453.5,562.1,453.5,559.9z"/>
<path d="M455.6,606.2c1.6-1.6,4.3-1.6,5.9,0c1.6,1.6,1.6,4.3,0,5.9c-1.3,1.3-3.2,1.6-4.7,0.8l-2,2c2.7,1.8,6.4,1.5,8.8-0.9
	c2.7-2.7,2.7-7.1,0-9.8c-2.7-2.7-7.1-2.7-9.8,0c-2.4,2.4-2.7,6.1-0.9,8.8l2-2C454,609.4,454.3,607.5,455.6,606.2z"/>
<path d="M348.2,612.1c-1.6-1.6-1.6-4.3,0-5.9c1.6-1.6,4.3-1.6,5.9,0c1.3,1.3,1.6,3.2,0.8,4.7l2,2c1.8-2.7,1.5-6.4-0.9-8.8
	c-2.7-2.7-7.1-2.7-9.8,0c-2.7,2.7-2.7,7.1,0,9.8c2.4,2.4,6.1,2.7,8.8,0.9l-2-2C351.4,613.7,349.5,613.4,348.2,612.1z"/>
<path d="M245.7,613.3c-2.3,0-4.2-1.9-4.2-4.2c0-2.3,1.9-4.2,4.2-4.2c1.8,0,3.4,1.2,3.9,2.8h2.9c-0.6-3.2-3.5-5.6-6.8-5.6
	c-3.8,0-7,3.1-7,7c0,3.8,3.1,7,7,7c3.4,0,6.2-2.4,6.8-5.6h-2.9C249,612.1,247.5,613.3,245.7,613.3z"/>
<path d="M141.8,606.1c1.6,1.6,1.6,4.3,0,5.9c-1.6,1.6-4.3,1.6-5.9,0c-1.3-1.3-1.6-3.2-0.8-4.7l-2-2c-1.8,2.7-1.5,6.4,0.9,8.8
	c2.7,2.7,7.1,2.7,9.8,0c2.7-2.7,2.7-7.1,0-9.8c-2.4-2.4-6.1-2.7-8.8-0.9l2,2C138.6,604.6,140.5,604.8,141.8,606.1z"/>
<path d="M29.4,612.1c-1.6-1.6-1.6-4.3,0-5.9c1.6-1.6,4.3-1.6,5.9,0c1.3,1.3,1.6,3.2,0.8,4.7l2,2c1.8-2.7,1.5-6.4-0.9-8.8
	c-2.7-2.7-7.1-2.7-9.8,0c-2.7,2.7-2.7,7.1,0,9.8c2.4,2.4,6.1,2.7,8.8,0.9l-2-2C32.6,613.7,30.7,613.4,29.4,612.1z"/>
<path d="M135,656.6c0-2.1,1.7-3.8,3.8-3.8c2.1,0,3.8,1.7,3.8,3.8c0,1.7-1.1,3.1-2.6,3.6v2.6c2.9-0.6,5.1-3.2,5.1-6.3
	c0-3.5-2.9-6.4-6.4-6.4c-3.5,0-6.4,2.9-6.4,6.4c0,3.1,2.2,5.7,5.1,6.3v-2.6C136.1,659.7,135,658.3,135,656.6z"/>
<path d="M35.1,653.8c1.5,1.5,1.5,3.9,0,5.4c-1.5,1.5-3.9,1.5-5.4,0c-1.2-1.2-1.4-2.9-0.7-4.4l-1.9-1.9c-1.6,2.5-1.4,5.9,0.8,8
	c2.5,2.5,6.5,2.5,9,0c2.5-2.5,2.5-6.5,0-9c-2.2-2.2-5.6-2.5-8-0.8l1.9,1.9C32.2,652.4,33.9,652.6,35.1,653.8z"/>
<path d="M35.7,702.1c0,1.8-1.5,3.3-3.3,3.3c-1.8,0-3.3-1.5-3.3-3.3c0-1.4,0.9-2.7,2.2-3.1l0-2.3c-2.5,0.5-4.4,2.7-4.4,5.4
	c0,3,2.5,5.5,5.5,5.5c3,0,5.5-2.5,5.5-5.5c0-2.7-1.9-4.9-4.4-5.4v2.3C34.8,699.4,35.7,700.7,35.7,702.1z"/>
<path d="M30.6,747.5c-1-1-1-2.6,0-3.6c1-1,2.6-1,3.6,0c0.8,0.8,1,2,0.5,2.9l1.3,1.3c1.1-1.7,0.9-3.9-0.5-5.4c-1.7-1.7-4.4-1.7-6.1,0
	c-1.7,1.7-1.7,4.4,0,6.1c1.5,1.5,3.7,1.7,5.4,0.5l-1.3-1.3C32.6,748.5,31.4,748.3,30.6,747.5z"/>
<path d="M140.7,743.8c1,1,1,2.6,0,3.6c-1,1-2.6,1-3.6,0c-0.8-0.8-1-2-0.5-2.9l-1.3-1.3c-1.1,1.7-0.9,3.9,0.5,5.4
	c1.7,1.7,4.4,1.7,6.1,0c1.7-1.7,1.7-4.4,0-6.1c-1.5-1.5-3.7-1.7-5.4-0.5l1.3,1.3C138.7,742.9,139.9,743,140.7,743.8z"/>
<path d="M245.7,748.3c-1.4,0-2.6-1.2-2.6-2.6c0-1.4,1.2-2.6,2.6-2.6c1.1,0,2.1,0.7,2.4,1.7l1.8,0c-0.4-2-2.1-3.4-4.2-3.4
	c-2.4,0-4.3,1.9-4.3,4.3c0,2.4,1.9,4.3,4.3,4.3c2.1,0,3.8-1.5,4.2-3.4h-1.8C247.8,747.5,246.8,748.3,245.7,748.3z"/>
<path d="M352.6,743.8c1,1,1,2.6,0,3.6c-1,1-2.6,1-3.6,0c-0.8-0.8-1-2-0.5-2.9l-1.3-1.3c-1.1,1.7-0.9,3.9,0.5,5.4
	c1.7,1.7,4.4,1.7,6.1,0c1.7-1.7,1.7-4.4,0-6.1c-1.5-1.5-3.7-1.7-5.4-0.5l1.3,1.3C350.6,742.9,351.8,743,352.6,743.8z"/>
<path d="M458.5,743.1c1.4,0,2.6,1.2,2.6,2.6c0,1.4-1.2,2.6-2.6,2.6c-1.1,0-2.1-0.7-2.4-1.7l-1.8,0c0.4,2,2.1,3.4,4.2,3.4
	c2.4,0,4.3-1.9,4.3-4.3c0-2.4-1.9-4.3-4.3-4.3c-2.1,0-3.8,1.5-4.2,3.4h1.8C456.4,743.8,457.3,743.1,458.5,743.1z"/>
<path d="M458.5,789.2c-1.1,0-2-0.9-2-2c0-1.1,0.9-2,2-2c0.9,0,1.6,0.6,1.9,1.4l1.4,0c-0.3-1.5-1.7-2.7-3.3-2.7
	c-1.9,0-3.4,1.5-3.4,3.4c0,1.9,1.5,3.4,3.4,3.4c1.6,0,3-1.2,3.3-2.7h-1.4C460.2,788.7,459.4,789.2,458.5,789.2z"/>
<path d="M352,788.6c-0.8,0.8-2.1,0.8-2.9,0c-0.8-0.8-0.8-2.1,0-2.9c0.6-0.6,1.6-0.8,2.3-0.4l1-1c-1.3-0.9-3.1-0.7-4.3,0.4
	c-1.3,1.3-1.3,3.5,0,4.8c1.3,1.3,3.5,1.3,4.8,0c1.2-1.2,1.3-3,0.4-4.3l-1,1C352.8,787.1,352.7,788,352,788.6z"/>
<path d="M243.6,787.2c0-1.1,0.9-2,2-2c1.1,0,2,0.9,2,2c0,0.9-0.6,1.6-1.4,1.9l0,1.4c1.5-0.3,2.7-1.7,2.7-3.3c0-1.9-1.5-3.4-3.4-3.4
	c-1.9,0-3.4,1.5-3.4,3.4c0,1.6,1.2,3,2.7,3.3v-1.4C244.2,788.9,243.6,788.1,243.6,787.2z"/>
<path d="M140.3,785.8c0.8,0.8,0.8,2.1,0,2.9c-0.8,0.8-2.1,0.8-2.9,0c-0.6-0.6-0.8-1.6-0.4-2.3l-1-1c-0.9,1.3-0.7,3.1,0.4,4.3
	c1.3,1.3,3.5,1.3,4.8,0c1.3-1.3,1.3-3.5,0-4.8c-1.2-1.2-3-1.3-4.3-0.4l1,1C138.7,785,139.6,785.1,140.3,785.8z"/>
<path d="M34.4,787.2c0,1.1-0.9,2-2,2c-1.1,0-2-0.9-2-2c0-0.9,0.6-1.6,1.4-1.9l0-1.4c-1.5,0.3-2.7,1.7-2.7,3.3c0,1.9,1.5,3.4,3.4,3.4
	c1.9,0,3.4-1.5,3.4-3.4c0-1.6-1.2-3-2.7-3.3v1.4C33.9,785.5,34.4,786.3,34.4,787.2z"/>
<path d="M138.9,705.4c-1.8,0-3.3-1.5-3.3-3.3c0-1.8,1.5-3.3,3.3-3.3c1.4,0,2.7,0.9,3.1,2.2l2.3,0c-0.5-2.5-2.7-4.4-5.4-4.4
	c-3,0-5.5,2.5-5.5,5.5c0,3,2.5,5.5,5.5,5.5c2.7,0,4.9-1.9,5.4-4.4H142C141.6,704.5,140.3,705.4,138.9,705.4z"/>
<path d="M242.3,702.2c0-1.8,1.5-3.3,3.3-3.3c1.8,0,3.3,1.5,3.3,3.3c0,1.4-0.9,2.7-2.2,3.1l0,2.3c2.5-0.5,4.4-2.7,4.4-5.4
	c0-3-2.5-5.5-5.5-5.5c-3,0-5.5,2.5-5.5,5.5c0,2.7,1.9,4.9,4.4,5.4v-2.3C243.2,704.8,242.3,703.6,242.3,702.2z"/>
<path d="M350.9,705.5c-1.8,0-3.3-1.5-3.3-3.3c0-1.8,1.5-3.3,3.3-3.3c1.4,0,2.7,0.9,3.1,2.2h2.3c-0.5-2.5-2.7-4.4-5.4-4.4
	c-3,0-5.5,2.5-5.5,5.5c0,3,2.5,5.5,5.5,5.5c2.7,0,4.9-1.9,5.4-4.4h-2.3C353.6,704.5,352.4,705.5,350.9,705.5z"/>
<path d="M461.8,702.1c0,1.8-1.5,3.3-3.3,3.3c-1.8,0-3.3-1.5-3.3-3.3c0-1.4,0.9-2.7,2.2-3.1v-2.3c-2.5,0.5-4.4,2.7-4.4,5.4
	c0,3,2.5,5.5,5.5,5.5c3,0,5.5-2.5,5.5-5.5c0-2.7-1.9-4.9-4.4-5.4v2.3C460.9,699.4,461.8,700.6,461.8,702.1z"/>
<path d="M245.5,652.7c2.1,0,3.8,1.7,3.8,3.8c0,2.1-1.7,3.8-3.8,3.8c-1.7,0-3.1-1.1-3.6-2.6h-2.6c0.6,2.9,3.2,5.1,6.3,5.1
	c3.5,0,6.4-2.9,6.4-6.4c0-3.5-2.9-6.4-6.4-6.4c-3.1,0-5.7,2.2-6.3,5.1h2.6C242.5,653.8,243.9,652.7,245.5,652.7z"/>
<path d="M353.7,653.9c1.5,1.5,1.5,3.9,0,5.4c-1.5,1.5-3.9,1.5-5.4,0c-1.2-1.2-1.4-2.9-0.7-4.4l-1.9-1.9c-1.6,2.5-1.4,5.9,0.8,8
	c2.5,2.5,6.5,2.5,9,0c2.5-2.5,2.5-6.5,0-9c-2.2-2.2-5.6-2.5-8-0.8l1.9,1.9C350.8,652.4,352.6,652.7,353.7,653.9z"/>
<path d="M455.8,659.3c-1.5-1.5-1.5-3.9,0-5.4c1.5-1.5,3.9-1.5,5.4,0c1.2,1.2,1.4,2.9,0.7,4.4l1.9,1.9c1.6-2.5,1.4-5.9-0.8-8
	c-2.5-2.5-6.5-2.5-9,0c-2.5,2.5-2.5,6.5,0,9c2.2,2.2,5.6,2.5,8,0.8l-1.9-1.9C458.8,660.7,457,660.5,455.8,659.3z"/>
<path d="M134.8,505.6c2.3-2.3,6-2.3,8.2,0c2.3,2.3,2.3,6,0,8.2c-1.8,1.8-4.5,2.2-6.6,1.1l-2.8,2.8c3.8,2.5,8.9,2.1,12.2-1.2
	c3.8-3.8,3.8-9.9,0-13.7c-3.8-3.8-9.9-3.8-13.7,0c-3.3,3.3-3.7,8.5-1.2,12.2l2.8-2.8C132.6,510.1,133,507.4,134.8,505.6z"/>
<path d="M249.7,505.5c2.3,2.3,2.3,6,0,8.2c-2.3,2.3-6,2.3-8.2,0c-1.8-1.8-2.2-4.5-1.1-6.6l-2.8-2.8c-2.5,3.8-2.1,8.9,1.2,12.2
	c3.8,3.8,9.9,3.8,13.7,0c3.8-3.8,3.8-9.9,0-13.7c-3.3-3.3-8.5-3.7-12.2-1.2l2.8,2.8C245.2,503.3,247.9,503.7,249.7,505.5z"/>
<path d="M345.7,509.7c0-3.2,2.6-5.8,5.8-5.8c3.2,0,5.8,2.6,5.8,5.8c0,2.5-1.6,4.7-3.9,5.5l0,4c4.4-0.9,7.8-4.8,7.8-9.5
	c0-5.4-4.4-9.7-9.7-9.7c-5.4,0-9.7,4.3-9.7,9.7c0,4.7,3.3,8.6,7.8,9.5v-4C347.3,514.4,345.7,512.2,345.7,509.7z"/>
<path d="M458.5,503.9c3.2,0,5.8,2.6,5.8,5.8c0,3.2-2.6,5.8-5.8,5.8c-2.5,0-4.7-1.6-5.5-3.9l-4,0c0.9,4.4,4.8,7.8,9.5,7.8
	c5.4,0,9.7-4.4,9.7-9.7c0-5.4-4.3-9.7-9.7-9.7c-4.7,0-8.6,3.3-9.5,7.8h4C453.8,505.5,455.9,503.9,458.5,503.9z"/>
<path d="M32.7,200c-10.8,0-19.6-8.8-19.6-19.6c0-10.8,8.8-19.6,19.6-19.6c8.5,0,15.8,5.5,18.5,13.1h13.6
	c-3-14.9-16.2-26.2-32.1-26.2C14.7,147.6,0,162.3,0,180.3c0,18.1,14.7,32.7,32.7,32.7c15.8,0,29-11.2,32.1-26.2H51.2
	C48.5,194.5,41.3,200,32.7,200z"/>
<path d="M125.1,194.5c-7.7-7.7-7.7-20.1,0-27.8c7.7-7.7,20.1-7.7,27.8,0c6,6,7.3,15,3.8,22.3l9.6,9.6c8.4-12.7,7-30-4.2-41.2
	c-12.8-12.8-33.5-12.8-46.3,0c-12.8,12.8-12.8,33.5,0,46.3c11.2,11.2,28.5,12.6,41.2,4.2l-9.6-9.6
	C140.1,201.8,131.1,200.5,125.1,194.5z"/>
<path d="M245.2,160.8c10.8,0,19.6,8.8,19.6,19.6c0,10.8-8.8,19.6-19.6,19.6c-8.5,0-15.8-5.5-18.5-13.1h-13.6
	c3,14.9,16.2,26.2,32.1,26.2c18.1,0,32.7-14.7,32.7-32.7c0-18.1-14.7-32.7-32.7-32.7c-15.8,0-29,11.2-32.1,26.2l13.6,0
	C229.4,166.3,236.6,160.8,245.2,160.8z"/>
<path d="M371.7,180.1c0,10.8-8.8,19.6-19.6,19.6c-10.8,0-19.6-8.8-19.6-19.6c0-8.5,5.5-15.8,13.1-18.5V148
	c-14.9,3-26.2,16.2-26.2,32.1c0,18.1,14.7,32.7,32.7,32.7c18.1,0,32.7-14.7,32.7-32.7c0-15.8-11.2-29-26.2-32.1l0,13.6
	C366.2,164.3,371.7,171.5,371.7,180.1z"/>
<path d="M444.7,166.6c7.7-7.7,20.1-7.7,27.8,0c7.7,7.7,7.7,20.1,0,27.8c-6,6-15,7.3-22.3,3.8l-9.6,9.6c12.7,8.4,30,7,41.2-4.2
	c12.8-12.8,12.8-33.5,0-46.3c-12.8-12.8-33.5-12.8-46.3,0c-11.2,11.2-12.6,28.5-4.2,41.2l9.6-9.6
	C437.4,181.7,438.7,172.7,444.7,166.6z"/>
<path d="M114.8,64.1c0,21.2-17.2,38.4-38.4,38.4C55.2,102.5,38,85.3,38,64.1c0-16.7,10.7-30.9,25.6-36.2V1.3
	C34.4,7.3,12.4,33.1,12.4,64.1c0,35.4,28.7,64,64,64c35.4,0,64-28.7,64-64c0-31-22-56.8-51.2-62.7v26.6
	C104.1,33.2,114.8,47.3,114.8,64.1z"/>
<path d="M271.5,36.9c15,15,15,39.3,0,54.3c-15,15-39.3,15-54.3,0c-11.8-11.8-14.3-29.4-7.5-43.7l-18.8-18.8
	c-16.5,24.9-13.8,58.7,8.1,80.6c25,25,65.5,25,90.5,0c25-25,25-65.5,0-90.5C267.7-3.2,233.8-5.9,209,10.6l18.8,18.8
	C242,22.6,259.6,25,271.5,36.9z"/>
<path d="M414.2,102.9c-21.2,0-38.4-17.2-38.4-38.4c0-21.2,17.2-38.4,38.4-38.4c16.7,0,30.9,10.7,36.2,25.6h26.6
	C471,22.5,445.2,0.5,414.2,0.5c-35.4,0-64,28.7-64,64c0,35.4,28.7,64,64,64c31,0,56.8-22,62.7-51.2h-26.6
	C445.1,92.2,430.9,102.9,414.2,102.9z"/>
</svg>
