v 6.12646 -8.37695 -1
v 8.3769 -6.12654 -1
v 2.25042 -9.86228e-06 -1
v 8.37695 6.12646 -1
v 6.12654 8.3769 -1
v 9.86228e-06 2.25042 -1
v -6.12646 8.37695 -1
v -8.3769 6.12654 -1
v -2.25042 9.86228e-06 -1
v -8.37695 -6.12646 -1
v -6.12654 -8.3769 -1
v -9.86228e-06 -2.25042 -1
v 6.12646 -8.37695 1
v 8.3769 -6.12654 1
v 2.25042 -9.86228e-06 1
v 8.37695 6.12646 1
v 6.12654 8.3769 1
v 9.86228e-06 2.25042 1
v -6.12646 8.37695 1
v -8.3769 6.12654 1
v -2.25042 9.86228e-06 1
v -8.37695 -6.12646 1
v -6.12654 -8.3769 1
v -9.86228e-06 -2.25042 1
v 7.25168 -7.25175 0
v 5.31366 -3.06327 0
v 5.31369 3.06323 0
v 7.25175 7.25168 0
v 3.06327 5.31366 0
v -3.06323 5.31369 0
v -7.25168 7.25175 0
v -5.31366 3.06327 0
v -5.31369 -3.06323 0
v -7.25175 -7.25168 0
v -3.06327 -5.31366 0
v 3.06323 -5.31369 0
vn 0 0 1
vn 0 0 -1
vn 0.707107 -0.707107 0
vn 0.707107 -0.707107 0
vn 0.707107 0.707107 0
vn 0.707107 0.707107 0
vn 0.707107 -0.707107 0
vn 0.707107 -0.707107 0
vn 0.707107 0.707107 0
vn 0.707107 0.707107 0
vn -0.707107 0.707107 0
vn -0.707107 0.707107 0
vn 0.707107 0.707107 0
vn 0.707107 0.707107 0
vn -0.707107 0.707107 0
vn -0.707107 0.707107 0
vn -0.707107 -0.707107 0
vn -0.707107 -0.707107 0
vn -0.707107 0.707107 0
vn -0.707107 0.707107 0
vn -0.707107 -0.707107 0
vn -0.707107 -0.707107 0
vn 0.707107 -0.707107 0
vn 0.707107 -0.707107 0
vn -0.707107 -0.707107 0
vn -0.707107 -0.707107 0
vn 0.707107 -0.707107 0
vn 0.707107 -0.707107 0
vn 0.707107 0.707107 0
vn 0.707107 0.707107 0
vn 0.707107 -0.707107 0
vn 0.707107 -0.707107 0
vn 0.707107 0.707107 0
vn 0.707107 0.707107 0
vn -0.707107 0.707107 0
vn -0.707107 0.707107 0
vn 0.707107 0.707107 0
vn 0.707107 0.707107 0
vn -0.707107 0.707107 0
vn -0.707107 0.707107 0
vn -0.707107 -0.707107 0
vn -0.707107 -0.707107 0
vn -0.707107 0.707107 0
vn -0.707107 0.707107 0
vn -0.707107 -0.707107 0
vn -0.707107 -0.707107 0
vn 0.707107 -0.707107 0
vn 0.707107 -0.707107 0
vn -0.707107 -0.707107 0
vn -0.707107 -0.707107 0
vn 0.707107 -0.707107 0
vn 0.707107 0.707107 0
vn 0.707107 -0.707107 0
vn 0.707107 0.707107 0
vn -0.707107 0.707107 0
vn 0.707107 0.707107 0
vn -0.707107 0.707107 0
vn -0.707107 -0.707107 0
vn -0.707107 0.707107 0
vn -0.707107 -0.707107 0
vn 0.707107 -0.707107 0
vn -0.707107 -0.707107 0

vt 0.430213 0
vt 0.496967 0.066754
vt 0.315237 0.248483
vt 0.496967 0.430213
vt 0.430213 0.496967
vt 0.248483 0.315237
vt 0.066754 0.496967
vt 0 0.430213
vt 0.181729 0.248483
vt 0 0.066754
vt 0.066754 0
vt 0.248483 0.181729
vt 0.066754 0.503033
vt 0 0.569787
vt 0.181729 0.751517
vt 0 0.933246
vt 0.066754 1
vt 0.248483 0.818271
vt 0.430213 1
vt 0.496967 0.933246
vt 0.315237 0.751517
vt 0.496967 0.569787
vt 0.430213 0.503033
vt 0.248483 0.684763
vt 0.503089 2.29533e-06
vt 0.597493 2.29533e-06
vt 0.603662 2.29533e-06
vt 0.860667 2.29533e-06
vt 0.50308 0.065399
vt 0.760084 0.065399
vt 0.866836 2.29533e-06
vt 0.96124 2.29533e-06
vt 0.50308 0.130796
vt 0.760084 0.130796
vt 0.50308 0.196193
vt 0.760084 0.196193
vt 0.766253 0.065399
vt 0.860658 0.065399
vt 0.50308 0.261589
vt 0.760084 0.261589
vt 0.50308 0.326986
vt 0.760084 0.326986
vt 0.866836 0.065399
vt 0.96124 0.065399
vt 0.50308 0.392383
vt 0.760084 0.392383
vt 0.50308 0.45778
vt 0.760084 0.45778
vt 0.503089 0.059328
vt 0.597493 0.059328
vt 0.603662 0.059328
vt 0.860667 0.059328
vt 0.50308 0.124725
vt 0.760084 0.124725
vt 0.866836 0.059328
vt 0.96124 0.059328
vt 0.50308 0.190121
vt 0.760084 0.190121
vt 0.50308 0.255518
vt 0.760084 0.255518
vt 0.766253 0.124725
vt 0.860658 0.124725
vt 0.50308 0.320915
vt 0.760084 0.320915
vt 0.50308 0.386312
vt 0.760084 0.386312
vt 0.866836 0.124725
vt 0.96124 0.124725
vt 0.50308 0.451708
vt 0.760084 0.451708
vt 0.50308 0.517105
vt 0.760084 0.517105
vt 0.550291 0.0296651
vt 0.732165 0.0296651
vt 0.631582 0.0950619
vt 0.914038 0.0296651
vt 0.631582 0.160459
vt 0.631582 0.225855
vt 0.813455 0.0950619
vt 0.631582 0.291252
vt 0.631582 0.356649
vt 0.914038 0.0950619
vt 0.631582 0.422046
vt 0.631582 0.487442

f 22/10/1 23/11/1 24/12/1
f 22/10/1 24/12/1 21/9/1
f 19/7/1 20/8/1 18/6/1
f 21/9/1 18/6/1 20/8/1
f 21/9/1 24/12/1 15/3/1
f 24/12/1 14/2/1 15/3/1
f 15/3/1 18/6/1 21/9/1
f 18/6/1 16/4/1 17/5/1
f 16/4/1 18/6/1 15/3/1
f 24/12/1 13/1/1 14/2/1
f 11/23/2 10/22/2 12/24/2
f 12/24/2 10/22/2 9/21/2
f 8/20/2 7/19/2 6/18/2
f 6/18/2 9/21/2 8/20/2
f 12/24/2 9/21/2 3/15/2
f 2/14/2 12/24/2 3/15/2
f 6/18/2 3/15/2 9/21/2
f 4/16/2 6/18/2 5/17/2
f 6/18/2 4/16/2 3/15/2
f 1/13/2 12/24/2 2/14/2
f 25/73/51 1/25/3 2/26/4
f 25/73/51 2/26/4 14/50/28
f 25/73/51 14/50/28 13/49/27
f 25/73/51 13/49/27 1/25/3
f 26/74/52 2/27/5 3/28/6
f 26/74/52 3/28/6 15/52/30
f 26/74/52 15/52/30 14/51/29
f 26/74/52 14/51/29 2/27/5
f 27/75/53 3/29/7 4/30/8
f 27/75/53 4/30/8 16/54/32
f 27/75/53 16/54/32 15/53/31
f 27/75/53 15/53/31 3/29/7
f 28/76/54 4/31/9 5/32/10
f 28/76/54 5/32/10 17/56/34
f 28/76/54 17/56/34 16/55/33
f 28/76/54 16/55/33 4/31/9
f 29/77/55 5/33/11 6/34/12
f 29/77/55 6/34/12 18/58/36
f 29/77/55 18/58/36 17/57/35
f 29/77/55 17/57/35 5/33/11
f 30/78/56 6/35/13 7/36/14
f 30/78/56 7/36/14 19/60/38
f 30/78/56 19/60/38 18/59/37
f 30/78/56 18/59/37 6/35/13
f 31/79/57 7/37/15 8/38/16
f 31/79/57 8/38/16 20/62/40
f 31/79/57 20/62/40 19/61/39
f 31/79/57 19/61/39 7/37/15
f 32/80/58 8/39/17 9/40/18
f 32/80/58 9/40/18 21/64/42
f 32/80/58 21/64/42 20/63/41
f 32/80/58 20/63/41 8/39/17
f 33/81/59 9/41/19 10/42/20
f 33/81/59 10/42/20 22/66/44
f 33/81/59 22/66/44 21/65/43
f 33/81/59 21/65/43 9/41/19
f 34/82/60 10/43/21 11/44/22
f 34/82/60 11/44/22 23/68/46
f 34/82/60 23/68/46 22/67/45
f 34/82/60 22/67/45 10/43/21
f 35/83/61 11/45/23 12/46/24
f 35/83/61 12/46/24 24/70/48
f 35/83/61 24/70/48 23/69/47
f 35/83/61 23/69/47 11/45/23
f 36/84/62 12/47/25 1/48/26
f 36/84/62 1/48/26 13/72/50
f 36/84/62 13/72/50 24/71/49
f 36/84/62 24/71/49 12/47/25
