<?xml version="1.0" encoding="utf-8"?>
<!-- Generator: Adobe Illustrator 26.3.1, SVG Export Plug-In . SVG Version: 6.00 Build 0)  -->
<svg version="1.1" id="レイヤー_1" xmlns="http://www.w3.org/2000/svg" xmlns:xlink="http://www.w3.org/1999/xlink" x="0px"
	 y="0px" viewBox="0 0 1180.3 475.5" style="enable-background:new 0 0 1180.3 475.5;" xml:space="preserve">
  <style>
    path {
      fill: #000;
    }
    @media (prefers-color-scheme: light) {
      path {
        fill: #000;
      }
    }
    @media (prefers-color-scheme: dark) {
      path {
        fill: #FFF;
      }
    }
  </style>
<g>
	<path class="st0" d="M0,404.9h67.6v70.6H0V404.9z"/>
	<path class="st0" d="M209.9,0h92.2l136.6,402L574.3,0h91.3v475.5h-61.2V194.8c0-9.7,0.2-25.8,0.6-48.2c0.4-22.4,0.6-46.5,0.6-72.2
		l-135.6,401h-63.8l-136.6-401V89c0,11.7,0.2,29.5,0.6,53.4c0.6,23.7,1,41.2,1,52.4v280.6h-61.5V0z"/>
	<path class="st0" d="M1040.8,280.6L968.6,70.6l-76.7,210.1H1040.8z M935,0h72.8l172.5,475.5h-70.6L1061.5,333h-188L822,475.5h-66
		L935,0z"/>
</g>
</svg>
