<?xml version="1.0" encoding="utf-8"?>
<!-- Generator: Adobe Illustrator 23.0.2, SVG Export Plug-In . SVG Version: 6.00 Build 0)  -->
<svg version="1.1" id="レイヤー_1" xmlns="http://www.w3.org/2000/svg" xmlns:xlink="http://www.w3.org/1999/xlink" x="0px"
	 y="0px" viewBox="0 0 134 183.5" style="enable-background:new 0 0 134 183.5;" xml:space="preserve">
<style type="text/css">
	.st0{fill:#565656;}
</style>
<g transform="translate(0 -924.36)">
	<path class="st0" d="M82.9,1102.4c-0.2-1.4,2.1-2.3,3.1-1.2c0.6,0.6,0.2,1.2-0.9,1.5C83.8,1102.7,82.9,1102.7,82.9,1102.4z
		 M68.5,1102c-0.2-1.1,0.3-1.7,1.1-1.4c0.8,0.3,1.5,1.1,1.5,1.8c0.2,0.6-0.3,1.2-1.1,1.4C69.4,1103.8,68.7,1103,68.5,1102z
		 M77.5,1101.3c-0.2-1.2,2.6-3.2,5-3.5c0.8-0.2,0.5,0.8-0.6,2C79.4,1102.4,77.8,1103,77.5,1101.3z M94.8,1096
		c-0.2-0.6,2-2.4,4.4-4.1c2.6-1.7,5.5-4.3,6.4-5.6c2.1-3.2,3.4-3.7,3.8-1.1c0.2,1.1-0.5,2-1.4,2.1c-0.9,0.2-3.8,2.3-6.6,4.9
		C96.1,1097.2,94.9,1097.8,94.8,1096z M101,1094.9c-0.2-0.8,0.6-1.4,1.8-1.5c1.1-0.2,1.7,0.3,1.4,1.1c-0.3,0.8-1.1,1.5-1.8,1.5
		C101.8,1096,101,1095.5,101,1094.9z M110.5,1093.6c-0.5-0.6-0.2-1.5,0.9-2c1.1-0.6,1.8-0.3,2,0.8
		C113.9,1094.3,111.9,1095.1,110.5,1093.6L110.5,1093.6z M70.2,1098.8c-0.5-0.5,1.2-0.9,3.7-1.1c2.4-0.2,4.4,0,4.4,0.3
		C78.4,1098.9,71,1099.7,70.2,1098.8z M88.7,1094.9c1.2-1.2,2.6-2.3,3.4-2.4c1.5-0.3,12.2-9.9,12.1-11c0-0.5,1.2-1.7,2.7-2.7
		c1.7-1.1,2.9-1.7,3.1-1.4c0.2,1.1-4.4,7.8-5.3,7.9c-0.6,0.2-3.4,2.3-6.3,4.9c-2.9,2.6-5.8,4.4-6.4,4.3c-0.6-0.3-1.4,0.2-1.7,0.9
		c-0.3,0.8-1.2,1.5-2.1,1.5C87.1,1097.1,87.4,1096.2,88.7,1094.9L88.7,1094.9z M65.2,1098.4c-1.2-0.2-2.4-0.8-2.4-1.2
		c-0.2-0.6,1.1-0.9,2.4-0.8c1.4,0.2,2.7,0.8,2.7,1.4s0,1.1-0.2,1.1C67.6,1098.6,66.4,1098.4,65.2,1098.4z M80.4,1095.5
		c-0.2-0.8,0.3-1.4,1.1-1.5c0.8-0.2,1.4,0.3,1.5,1.1c0.2,0.8-0.3,1.4-1.1,1.5C81.2,1096.8,80.6,1096.3,80.4,1095.5z M115.7,1090.1
		c-0.3-1.7,1.8-3.1,2.7-2c0.5,0.6,0.2,1.5-0.9,2C116.6,1090.7,115.8,1090.7,115.7,1090.1L115.7,1090.1z M83.6,1093.4
		c-0.6-1.1-2.4-1.2-5-0.5c-3.1,0.8-3.5,0.8-1.8-0.3c2.1-1.4,2.1-1.5-0.6-1.7c-2-0.2-2.7,0.3-2.6,1.5c0.5,2.4-5.8,2.7-7,0.3
		c-1.1-2.1-14.7-7.2-14.4-5.3c0.2,0.6,2.6,1.8,5.5,2.9c5.3,1.7,8.4,3.8,6.1,4.3c-0.8,0.2-1.7-0.3-2.3-0.9c-0.6-0.6-2-0.9-3.2-0.8
		c-1.2,0.2-3.5-0.5-5-1.5c-1.5-1.1-5.2-3.1-8.1-4.6s-5.3-3.4-5.5-4.1c-0.2-0.8,2.1,0.2,4.9,2c2.9,1.8,5.5,2.9,5.8,2.3
		c0.3-0.5-0.6-1.5-2.1-2.3c-4-1.8-7.9-4.7-9.6-7.2c-2.6-3.5,0.8-2.7,4.4,1.1c2,1.8,6.3,4.4,9.6,5.8c3.4,1.2,7,2.7,8.1,3.4
		c1.1,0.6,2.7,1.1,3.7,1.1s4.1,0,6.9-0.2c5-0.2,10.5,1.4,12.4,3.2c1.4,1.4,3.8-0.9,2.4-2.4c-0.6-0.8-0.5-0.9,0.6-0.6
		c1.1,0.5,1.4,1.4,0.6,3.4C86.5,1095.1,84.8,1095.5,83.6,1093.4L83.6,1093.4z M70.6,1090.7c-3.2-1.4-4.7-0.6-1.7,0.9
		c1.5,0.8,2.9,1.1,3.2,0.8S71.7,1091.1,70.6,1090.7L70.6,1090.7z M58,1096.5c-0.6-0.6-1.8-0.8-2.7-0.2s-1.5,0.5-1.2-0.3
		c0.3-0.8-0.8-1.5-2.3-1.7c-2.7-0.5-8.2-3.8-8.4-5c-0.2-0.8,5.3,1.2,7.8,2.9c1.1,0.6,3.7,1.7,6,2.3s4.1,1.5,4.3,2
		C61.5,1097.8,59.2,1097.8,58,1096.5z M91.1,1089.4c1.1-1.8,0.9-2.1-0.5-1.8c-0.9,0.2-2.6-0.3-3.5-0.9c-1.4-0.9-0.9-2,1.7-4.1
		c4-3.4,4.6-3.5,4.7-1.8c0.2,0.6-1.2,1.8-2.9,2.6c-1.7,0.8-2.9,1.8-2.9,2.4c0.3,2.1,3.2,0.6,6.1-3.4c1.7-2.1,3.1-3.4,3.2-2.6
		c0.2,0.8-1.2,2.7-2.9,4.6c-1.7,1.7-2.4,3.1-1.7,2.9c0.8-0.2,3.1-2.3,5-4.7s3.2-4.1,2.4-3.5c-1.7,1.2-3.7-0.8-2-2.1
		c1.8-1.7,3.8-8.4,3.8-13.6c0-3.5-0.3-4.4-1.4-3.5c-1.1,0.9-1.4,0-1.4-3.8c0-2.7-0.2-6.3-0.5-7.9c-0.3-1.5,0.2-2.9,0.9-3.1
		c0.8-0.2,1.2,0.9,0.9,2.4c-0.3,1.7,0.2,2.6,1.1,2.4c1.8-0.3-1.4-13.6-3.7-15.3c-0.9-0.6-1.7-2.3-2-3.8c-0.5-2.7-6.7-13.7-13.1-23.1
		c-4.7-6.9-13.4-13.3-18-13.4c-9.2-0.2-17.6,7.2-20.3,17.9c-1.7,6.7,0.9,21.8,4.6,26c0.6,0.6,1.2,1.8,1.5,2.6
		c0.3,0.8,2.7,3.7,5.6,6.4c4.4,4.3,5.6,4.9,8.9,4c2-0.6,4.3-1.2,5-1.4c1.4-0.3,3.5-6.1,3.1-8.5c-0.2-0.8-1.7,0.8-3.4,3.2
		c-3.1,4.4-6.3,5.3-5.3,1.5c0.3-1.1-0.3-1.8-1.2-1.7c-0.9,0.2-2.7-0.5-4.3-1.5s-2.6-1.1-2.4-0.3c0.2,0.8,1.5,2,3.1,2.6
		c1.5,0.6,2.9,1.7,2.9,2.1c0.2,0.6-1.2,0.5-2.7-0.5c-3.5-1.7-7.8-7.2-7-8.9c0.8-2,3.1-0.5,2.6,1.7c-0.3,1.4,0.2,1.7,1.2,0.9
		c0.9-0.6,2.6-0.3,3.7,0.8c2.7,2.4,10.4,1.1,9.9-1.8c-0.2-1.2-0.3-4.9-0.2-8.2c0.5-8.5-6-19.4-10.8-18.8c-0.6,0.2-0.6,0.6,0,1.2
		c0.6,0.6,0.5,1.2-0.3,1.4c-0.8,0.2-1.4,2.6-1.4,5.3c0,2.9-0.6,5.2-1.2,5.3c-0.6,0.2-0.9-0.5-0.6-1.1c0.3-0.8-0.2-1.5-0.9-1.8
		s-1.1-1.4-0.8-2.3c1.1-2.4,0.8-4.9-0.5-4.7c-0.6,0.2-0.9,1.4-0.8,2.7c0.2,1.4-0.2,2.6-0.9,2.7c-1.7,0.3-1.5-7.9,0.2-8.9
		c0.6-0.3,0.8-0.9,0.3-1.4c-0.5-0.5,0.3-2.6,1.5-4.7c2.6-4.6,8.1-6.6,12.7-4.6c4.9,2.1,6.4,1.2,2.7-1.7c-2.7-2.1-4.3-2.4-7.8-1.2
		c-5.6,1.8-9.3,5.2-11.3,10.1c-0.8,2.1-2,4.1-2.6,4.1c-0.6,0.2-0.6-0.6,0-1.7c0.6-1.1,0.8-2.1,0.3-2.4c-1.1-0.8,7.5-11.3,9.5-11.6
		c0.9-0.2,2.9-0.8,4.6-1.2c2.7-0.8,5,0.3,14.5,6.9c2.4,1.7,8.2,9.6,11.6,15.9c1.1,1.8,0.9,2-0.9,0.9c-1.2-0.8-2.3-2.1-2.4-3.2
		c-0.5-2.4-9.8-14.2-11.1-14c-2.3,0.3-1.7,4,0.6,4.1c2.4,0.3,8.7,8.7,12.4,16.6c0.6,1.5,1.7,2.6,2.4,2.6c0.8,0,0.6-0.9,0.2-2
		c-0.6-0.9-0.5-1.8,0.3-2c1.2-0.2,3.4,3.7,4.9,8.2c0.3,1.1,1.2,3.4,2.1,5.3c1.1,2.4,1.1,3.4,0,2.9c-0.9-0.3-2.3-2.9-3.2-5.5
		c-0.9-2.7-2.1-5-2.7-5.3c-2-0.8,0,5,3.1,9c3.5,4.6,4.4,9.5,2.3,12.4c-0.9,1.2-1.4,3.2-1.2,4.4c0.3,1.7-0.3,2.3-2.3,2
		c-1.8-0.2-2.6,0.3-2.3,2c0.3,1.8,0.6,2,2.1,0.2c1.5-1.8,1.8-1.8,1.5,0c-0.2,1.1-1.4,2-2.6,2.1c-1.2,0.2-2.9,1.8-3.7,4
		c-1.7,4.4-7.2,7.5-14.4,8.1c-10.8,0.8-26.7-11.1-30.4-22.9c-0.8-2.6-0.8-2.7,0.8-1.1c0.9,1.1,1.4,2.6,1.1,3.4
		c-0.3,0.8-0.2,1.4,0.5,1.2c0.6-0.2,3.1,2.4,5.5,5.5c6.9,8.7,14,12.1,23.4,11.1c7.5-0.8,7.9-0.9,11.3-5.8c2-2.7,3.4-6.3,3.2-7.6
		c-0.3-2-1.2-1.1-3.7,3.7c-2.7,5-4.1,6.3-8.1,7.3c-2.6,0.6-6.1,1.1-7.8,0.9c-3.8-0.3-12.4-5.6-18-11.3c-5.3-5.3-6.1-8.2-1.1-4
		c2,1.7,3.8,3.5,3.8,4.1c0.3,1.7,9.9,8.7,10.7,7.8c0.5-0.6,0.8-0.3,0.9,0.5c0.3,2,9,2,10.8,0c0.8-0.9,2.6-1.5,3.8-1.2
		c1.7,0.3,2,0.2,1.2-0.8c-1.4-1.5-5.6-1.1-6.1,0.6c-0.3,1.7-9.9-0.2-13-2.4c-2.1-1.7-2.1-1.7,1.1-0.6c5.3,1.8,10.5,1.2,12.8-1.7
		c1.4-1.7,2.1-2,2.3-1.1s0.8,1.1,1.4,0.6s1.1-1.5,0.9-2.3c-0.2-0.8-0.8-0.8-1.4-0.3c-1.2,1.1-2-0.8-0.9-2.1c1.4-2,4.4,1.5,3.5,4.1
		c-1.5,4.3,0.5,3.7,2.3-0.8c0.9-2.3,2.4-4.3,3.4-4.4c0.9-0.2,1.5-0.8,1.4-1.5c-0.2-0.8,0.5-1.4,1.1-1.5c0.8-0.2,1.2,0.9,0.9,2.4
		c-0.2,1.5,0.2,2.6,0.9,2.4c1.7-0.3,2.1-7.6,0.9-13c-1.4-5.8-2.4-7.6-3.8-6.6c-0.6,0.6-1.4-0.8-1.8-3.2c-0.8-5.2-7.5-17.9-11.5-21.4
		l-2.9-2.6l2.7,4.1c1.5,2.3,3.4,4.9,4.1,5.8c1.5,2,3.4,6.7,5.6,14.7c1.4,4.9,1.2,5.8-0.6,6.7c-2.3,0.9-2.4,2.6-1.4,9.9
		c0.3,2.3,0,4.1-0.6,4.3c-0.6,0.2-0.9-0.5-0.6-1.4c0.5-1.1,0.2-1.2-0.8-0.3c-1.1,0.9-1.2,0.5-0.8-2c0.8-4-2.4-21.4-4.1-22.6
		c-0.8-0.5-0.8,0.6-0.2,2.6c0.6,2,0.6,4,0.2,4.4c-0.6,0.5-1.2-0.6-1.5-2.4c-0.3-1.8-1.2-5.5-2.1-7.9c-1.8-5.2-1.1-6.3,1.5-1.8
		c0.9,1.7,2.6,2.7,3.7,2.6c1.5-0.3,2.1,1.2,2.9,6c0.6,3.4,1.7,6.6,2.4,6.9c1.4,0.6-0.2-6.9-2.7-13.9c-1.2-3.4-6.1-9.9-10.2-14
		c-2.9-2.7-3.2-3.5-1.4-3.1c1.4,0.3,1.8,0,1.2-0.8c-1.5-1.7-11.1-1.5-13.4,0.3c-1.5,1.2-1.1,1.4,2.1,0.8c4.7-0.9,10.7,3.1,16.2,10.5
		c3.7,5,4.1,6,2.6,6.1c-0.5,0.2-2-1.5-3.4-3.5c-1.7-2.7-2.6-3.2-3.2-1.8c-0.6,1.5-0.9,1.5-1.2,0c-0.3-1.1-0.5-2.3-0.5-2.9
		c0-0.6-1.4-2.6-3.2-4.4c-2.6-2.6-4-3.1-7.5-2.3c-2.3,0.5-3.8,1.4-3.4,2c0.5,0.6,0.3,1.8-0.5,3.1c-1.5,2.6-0.8,2.4,3.4-0.6
		c2.9-2.1,3.5-2.3,5.5-0.6c4.1,3.4,6.9,8.7,8.7,16.6c1.2,5.5,1.4,7.8,0.2,8.1c-1.2,0.2-1.1,0.6,0.2,1.5s2.1,0.8,3.2-0.6
		c1.2-1.4,1.7-1.2,2.6,1.1c0.6,1.5,0.8,4,0.5,5.5c-0.5,2.3-0.6,2.1-1.2-0.6c-0.6-3.1-0.6-3.1-1.8,0.9c-0.6,2.3-1.5,4.9-2,5.8
		c-1.1,2-12.4,5.6-12.5,4c-0.3-2-8.5-8.1-9.5-7c-0.5,0.6-0.6,0.5-0.3-0.5c0.3-0.8-0.6-3.1-2-4.9c-3.4-4.4-4.1-6.7-6.1-15.7
		c-3.1-13.9,2.9-27.6,13.9-32.4c4.1-1.8,6-1.8,11-0.6c3.4,0.9,6.3,1.2,6.6,0.8c0.3-0.5,0.3-0.9,0-0.9c-6.6-2.6-10.2-3.2-15.4-2.4
		c-5.5,0.9-6.9,1.7-11.3,7c-3.4,4.1-5.2,5.5-5.3,4.1c-0.2-1.1,2.4-4.6,6-7.6c5.8-5.3,6.6-5.6,13.9-6.3c6.1-0.5,7.8-0.9,8.5-2.7
		c0.8-2,1.2-2,4.6-0.5c2,0.9,4,1.4,4.3,0.9c0.8-1.1,8.4,1.5,8.5,3.1c0.3,1.8-2,1.8-2.9,0.2c-0.6-1.1-1.2-0.9-2.4,0.8
		c-1.5,2.1-1.1,2.7,4.7,7.3c4.9,3.8,7.5,7.2,11.3,15c2.7,5.5,5,10.7,5.2,11.5c0.2,0.8,0.8,1.4,1.2,1.4c1.5-0.3,0.8-4.3-1.1-6
		c-0.8-0.8-1.2-1.4-0.8-1.5c0.5,0-0.8-2.4-2.6-5.3c-3.1-5-3.2-6-0.5-5.8c1.1,0,0.6-1.5-2.1-6.7c-1.2-2.3-1.2-2.3,1.1-0.3
		c2.7,2.4,3.7,6.1,2,7.5c-0.8,0.6-0.3,2.1,1.2,4.1c3.1,4.3,6.6,12.4,7.6,17.7c0.5,2.4,1.4,4.3,2,4.3c1.4-0.2-1.7-11.5-4.3-16
		c-0.9-1.7-2.1-3.8-2.4-4.9s-1.2-2.7-2-3.8c-0.8-1.2-0.6-2.1,0.2-2.3c0.8-0.2,0.9-1.2,0.3-2.3c-2.3-4.6,4.1,2.3,9.6,10.4
		c7.6,11.3,6.1,12.4-1.8,1.4c-7-10.1-8.5-10.7-2.3-1.1c2.1,3.4,4.1,6.4,4.3,6.7c0.2,0.3,0.6,1.4,1.2,2.4c0.5,0.9,1.8,3.7,2.9,6
		c1.5,3.2,1.7,3.4,1.1,0.8c-0.6-1.8-0.6-3.8-0.2-4.1c1.4-1.2,6.1,12.1,7.8,21.7c0.8,4.7,1.8,8.4,2.4,8.4c0.5-0.2,1.1,0.5,1.2,1.1
		c0.2,0.8-1.2,1.2-3.1,1.2c-2.6,0-3.2,0.5-2.7,2.6c0.2,1.4-0.8,4.7-2.1,7.3c-1.4,2.6-2.1,4.6-1.5,4.6c1.7-0.3,3.4-2.4,4-4.9
		c0.3-1.4,1.2-2.1,2.1-1.7c1.5,0.6-7.2,13.3-13.3,19.4c-2.1,2.1-2.1,2.1-0.5-0.8c2.3-3.7,2.1-4.9-0.5-3.4c-2.1,1.2-1.8-0.6,1.1-5.3
		c0.9-1.4,1.1-2.9,0.6-3.2c-0.6-0.5-1.7,0.5-2.6,2c-1.7,3.1-1.7,2.4,0.5-5.2c1.8-6.6,2.1-9.6,1.5-14.8c-0.3-2.3,0-4.1,0.6-4.3
		c1.7-0.3,1.8,11.8,0.3,16.5c-1.2,3.5-1.1,4.1,1.2,5.8c2.3,1.7,2.3,2,0.5,3.8c-2.4,2.4-2.3,3.7,0.2,3.4c1.1-0.2,1.8-1.1,1.7-2.1
		c-0.2-0.9,0.3-2.3,1.2-2.7c1.2-0.8,1.1-1.1-0.2-1.5c-1.2-0.3-0.9-1.8,0.8-5.2c1.5-2.9,2.1-5.5,1.4-6.9c-0.9-1.8-0.9-2,0.5-0.6
		s1.7,1.4,1.4-0.5c-0.2-1.2-0.9-2.1-1.5-2c-0.8,0.2-1.4-0.3-1.4-0.9c-0.2-0.6,0.8-1.2,2.1-1.2c1.2,0,1.5-0.2,0.6-0.3
		c-2.4-0.5-4.6-17.7-2.3-18c0.9-0.2,1.5-1.2,1.4-2.3s-0.9-1.7-1.8-1.2c-0.8,0.5-2.4-0.8-3.7-2.9c-2.1-3.5-2.1-3.5-0.6,1.8
		c1.5,5.3,1.5,5.5-0.8,2.7c-2.3-2.7-2.3-2.6-0.9,3.4c2.1,8.7,2.4,9.3,2.7,4.1c0.2-2.7,0.9,0.5,1.8,8.7c1.2,11.1,1.1,13.7-0.6,16.2
		l-2.1,2.9l0.9-4c1.4-6.7,0.8-17.7-0.9-18c-0.9-0.2-2.1-3.1-2.7-6.3c-0.6-3.2-1.5-6.7-1.8-7.6c-0.3-0.9-1.4-3.7-2.3-5.8
		c-0.9-2.1-2-3.8-2.6-3.8s-0.2,1.7,0.8,3.7c1.1,2,2,5,2,7.2c0.2,2.6-0.8,1.2-3.5-5.3c-2-4.9-3.4-9.5-3.1-10.1
		c0.3-0.6-0.2-1.2-0.8-1.1c-0.8,0.2-1.7-1.7-2-4.1c-0.3-2.4-1.2-4.6-2-4.9c-0.6-0.3-1.8-2-2.6-3.8c-3.2-3.8-16.3-15.9-20.9-17.4
		c-5-1.7-5.5,0.2-0.6,2.1c2.3,0.9,4,2.1,3.7,2.7s0.5,0.9,1.5,0.8c1.1-0.2,2,0.2,2.1,0.6c0.2,0.5,2.3,2.6,4.9,4.7
		c2.6,2.1,5.2,4.6,5.5,5.5c0.5,0.9,2.3,5,4.1,9c1.8,4,3.2,7.9,3.1,8.7s0.5,1.7,1.2,2.1c0.8,0.3,1.5,1.2,1.7,2c0.2,0.9-0.6,0.9-2,0
		c-1.2-0.8-2.3-2.1-2.4-3.2s-2-4.4-4-7.3c-2-2.9-4.3-6.4-5-7.6c-1.4-2.1-1.4-2.1,0.5-0.3c5.5,5.8,5.8,6,4.3,2.7
		c-0.8-1.7-2.3-4-3.4-5.3c-1.7-1.8-2.1-2-2.9-0.3c-1.1,2.3,0.6,6,7.8,16c0.8,1.1,1.5,3.1,1.8,4.1s2,3.1,4,4.3
		c2.6,1.5,4.1,3.8,5.3,7.9c1.1,3.7,1.2,6,0.5,6.1c-0.8,0.2-1.4-0.8-1.7-2c-1.1-6.6-2-9-4.1-10.5c-1.4-0.9-2.6-1.4-3.1-0.8
		c-0.3,0.5,0.2,1.2,1.2,1.7c2.6,1.1,5.6,18,3.2,17.9c-0.9,0-1.5,0.5-1.4,1.2c0.2,0.8,0.8,1.2,1.5,1.1c0.8-0.2,1.4,0.9,1.7,2.4
		c0.6,3.5-1.2,17.1-2.4,19.4c-0.6,1.1-0.6,1.5,0,1.2c1.1-0.6,1.8,0.3,2.1,2.3c0.2,1.2-8.4,9.8-11.6,11.6
		C90,1091.4,90,1091.3,91.1,1089.4L91.1,1089.4z M124.8,1051.4c-0.5-1.2-0.5-2.9,0-3.8c0.3-0.9,0-2.9-1.1-4.6
		c-0.9-1.7-1.4-3.4-1.1-3.8c0.3-0.5,0-0.8-0.8-0.6c-1.8,0.3-1.2,4.9,0.8,5.6c0.8,0.3,1.2,1.2,0.9,1.8c-0.3,0.6-1.2,1.1-2,0.8
		c-0.9-0.3-1.1,0-0.5,1.1c0.6,0.9,1.5,2.6,2.1,3.7c0.6,1.1,1.4,2,1.7,2S125.3,1052.6,124.8,1051.4L124.8,1051.4z M87.1,1003.6
		c0.6-0.8,0.2-0.9-1.2-0.2c-1.7,0.9-2.1,0.8-1.8-0.8c0.3-1.2-1.4-3.4-4.1-5.2c-5.6-4.1-6.7-3.1-1.7,1.8c2.1,2,4.3,4.7,5,6
		c0.8,1.4,1.5,1.7,2,0.9C85.8,1005.6,86.7,1004.4,87.1,1003.6z M82.4,988.2c0.3,0,0.2-0.6-0.3-1.1c-0.5-0.6-2-0.6-3.2,0
		c-1.2,0.6-2.7,0.5-3.4-0.3c-0.6-0.6-1.7-1.1-2.6-0.9c-0.8,0.2,0.2,1.2,2,2.3c2,1.1,4.3,1.5,5.2,1.1C81,988.7,81.9,988.2,82.4,988.2
		L82.4,988.2z M79.8,1087.9c-0.6-0.6,0.2-1.4,1.7-1.5c1.4-0.2,2.7,0.2,2.7,0.9c0,0.8-0.6,1.4-1.7,1.5
		C81.6,1089,80.4,1088.5,79.8,1087.9z M119.4,1081c0.8-1.2,2.1-2.3,3.1-2.4c0.9-0.2,1.5-0.8,1.2-1.4c-0.5-1.1,4.1-7.2,5.6-7.5
		c1.5-0.3-6.6,10.8-8.9,12.2C118.4,1083,118.3,1082.9,119.4,1081z M73.1,1086.4c-1.5-1.7-1.1-2,6.3-3.8c7-1.8,8.2-1.5,4,0.8
		C77.8,1086.4,74.2,1087.5,73.1,1086.4z M65.2,1086.4c-1.7-0.3-3.1-0.9-3.1-1.4c-0.2-1.4,4.6-1.4,7.2,0
		C72.3,1086.7,70,1087.5,65.2,1086.4L65.2,1086.4z M56.6,1083.2c-2-1.8-0.8-2.4,2.3-1.1c1.1,0.5,1.4,1.2,0.8,1.8
		C58.9,1084.4,57.5,1084.1,56.6,1083.2L56.6,1083.2z M64.7,1082c-2.1-0.6-6.1-2.3-8.7-3.8c-2.9-1.7-4.6-2.1-4.3-1.1
		c0.3,0.9,0.6,2.7,0.8,4.1c0.2,2-0.2,2.1-2,1.1c-1.7-0.9-1.8-1.7-0.8-2.4c0.9-0.8,0.2-2-2.7-3.8c-2.3-1.5-3.7-2.7-3.2-2.9
		c0.5-0.2-0.6-1.5-2.4-3.2c-2.7-2.6-7.9-9.8-8.2-11.5c0-0.3,0.5-0.6,1.2-0.6c0.6-0.2,1.8,1.2,2.6,2.9s3.8,5.8,6.7,8.9
		c6.7,7.2,6.4,6.9,7.2,5.8c0.3-0.5-1.5-3.4-4.3-6.3c-6.4-6.9-11.6-15.4-9.6-15.7c0.6-0.2,4.6,6,5.8,8.7c0.3,0.6,1.8,2.6,3.5,4.1
		c1.7,1.5,2.9,3.4,3.1,3.8c0.3,1.5,4.4,4,5.5,3.2c0.6-0.5,2.6,0,4.6,1.1c3.8,2.1,6.4,2.3,6.1,0.3c-0.2-1.4,4.3-1.7,6-0.5
		c0.6,0.5,0,0.8-1.4,0.8s-2.4,0.6-2.4,1.2c0.2,1.4,0.6,1.4,6.6,0.8c3.4-0.3,3.5-0.2,1.5,1.1c-2,1.2-1.7,1.4,1.8,0.9
		c2.3-0.3,4.3,0,4.3,0.8c0.3,1.7-7.9,1.5-8.9-0.2c-0.3-0.6-1.8-0.8-3.4-0.6c-2,0.3-2.3,0.6-0.9,1.2C72,1081.8,69,1083,64.7,1082
		L64.7,1082z M67,1079.7c0.5-1.1-2.1-2.1-11-4.6c-0.8-0.2,0.3,0.9,2.1,2.4c2,1.5,4,2.4,4.4,2c0.5-0.5,1.4-0.3,1.8,0.5
		C65.6,1081.5,66.2,1081.3,67,1079.7z M90,1076.5c2-2.1,3.4-4.6,3.2-5.6c-0.2-1.2,0.5-1.8,2.1-1.5c1.8,0.3,2.6-0.6,3.1-4
		c0.6-3.5,0.8-3.8,1.2-1.4c0.3,1.5,0,4.6-0.6,6.6c-1.5,4.6-5.6,9.9-6,7.8c-0.2-0.9-0.8-1.1-1.7-0.3
		C88.1,1080.9,86.8,1079.8,90,1076.5L90,1076.5z M96.3,1073.1c1.4-2.6,1.4-2.6-0.5-0.8c-1.1,1.1-1.8,2.6-1.7,3.4
		c0.2,0.8,0.3,1.1,0.5,0.8C94.8,1076.2,95.5,1074.6,96.3,1073.1z M104.8,1074.2c-0.8-1.8-0.9-4-0.3-4.9c0.6-0.9,0.9-3.1,0.6-4.7
		c-0.3-1.8,0-4.1,0.5-5.3c1.5-3.5,2.3,5,0.8,9.5c-1.1,3.2-0.9,4.1,0.5,4.7c1.2,0.6,1.4,1.2,0.6,2.3
		C106.7,1077.1,105.9,1076.6,104.8,1074.2z M82.9,1078.4c-0.2-0.8-0.9-1.1-1.8-1.1c-2,0.3-3.1-4.6-1.1-5.2l2.4-0.8
		c2.7-0.9,6.3-5,6-7.2c-0.5-2.6,1.2-3.1,5.2-1.7c2,0.8,2.4,0.6,1.7-0.3c-1.2-1.4,0-10.2,1.7-12.7c0.6-0.9,0.9-0.6,0.6,0.8
		c-0.2,1.2-0.5,5.8-0.8,10.2c-0.2,4.4-0.8,7.5-1.5,6.7c-0.9-1.1-1.4-0.9-1.8,0.3c-0.3,0.9-1.5,1.5-2.4,1.2c-0.9-0.2-2.7,1.1-4.1,2.7
		c-1.8,2.3-2.7,2.7-3.7,1.7c-0.9-1.1-1.4-0.9-1.8,0.2c-0.3,0.9-0.2,1.5,0.5,1.4c0.6-0.2,1.4,0.9,1.7,2.3c0.3,1.4,0.3,2.6,0,2.6
		C83.3,1079.7,83,1079.1,82.9,1078.4L82.9,1078.4z M92.6,1063.6c-0.6-0.6-1.2-0.5-1.8,0.8c-1.2,3.1-0.6,4.3,1.1,2.3
		C92.9,1065.6,93.2,1064.2,92.6,1063.6L92.6,1063.6z M85.3,1077.2c-0.2-0.9,4.6-6.3,5.6-6.6c0.5-0.2,0.8,0.6,0.5,1.7
		C91.1,1074.2,85.5,1078.6,85.3,1077.2L85.3,1077.2z M73.9,1074.6c-0.6-0.6-0.5-1.2,0.3-1.4c0.8-0.2,1.7,0.3,2.3,0.9
		c0.6,0.6,0.5,1.2-0.3,1.4C75.4,1075.7,74.5,1075.2,73.9,1074.6z M108.5,1069.3c-0.2-0.8,0.3-1.7,0.9-2.3c0.6-0.6,1.2-0.5,1.4,0.3
		c0.2,0.8-0.3,1.7-0.9,2.3C109.3,1070.2,108.7,1070.1,108.5,1069.3z M35.2,1078.8c-0.2-1.1,0.3-1.7,1.1-1.4c0.8,0.3,1.5,1.1,1.5,1.8
		c0.2,0.6-0.3,1.2-1.1,1.4S35.4,1079.8,35.2,1078.8z M43,1076.5c-12.7-12.5-15.9-16.3-13.4-16.6c0.6-0.2,2.4,1.8,4.1,4.1
		c1.7,2.3,3.4,4.6,3.8,4.9c2.4,1.5,9.5,9.2,9,9.8C46.1,1078.9,44.5,1078,43,1076.5L43,1076.5z M129.7,1063.9
		c-0.3-1.4-0.2-2.1,0.5-1.8c0.5,0.3,0.8,1.4,0.5,2.4C130.3,1065.8,130,1065.5,129.7,1063.9L129.7,1063.9z M60,1072.3
		c-1.1-0.9-2.3-1.2-2.9-0.8s-1.2,0-1.4-1.1c-0.5-2.6-0.2-2.6,4.7,0.5c2.3,1.4,3.5,2.6,2.7,2.7C62.4,1073.9,61,1073.3,60,1072.3
		L60,1072.3z M125.6,1063.3c0-0.3,0.6-1.4,1.5-2.4c1.4-1.5,1.5-1.5,1.2,0.3C128.1,1063.2,125.9,1064.9,125.6,1063.3L125.6,1063.3z
		 M109.3,1062.9c0.8-6.1-0.2-16-1.4-15c-0.8,0.6-1.1,2.7-0.6,4.9c0.3,2.1,0.2,3.5-0.5,3.4c-1.8-0.8-1.7-9.6,0.3-9.9
		c0.9-0.2,1.5-1.4,1.4-2.7s0-2.6,0.6-2.7c1.1-0.2,2.4,10.5,2.1,15.7c-0.2,1.4,0,3.8,0.2,5.5c0.2,1.5-0.3,2.9-0.9,3.1
		C109.6,1065.2,109.1,1064.2,109.3,1062.9z M31.1,1074.3c-0.6-1.1-0.8-2.1-0.5-2.6s1.1,0.5,1.7,1.7
		C33.4,1076.3,32.6,1076.9,31.1,1074.3L31.1,1074.3z M35.2,1073.4c-0.6-0.5-1.1-1.2-1.2-2c-0.2-0.8,0.5-0.8,1.5,0
		c0.9,0.8,1.5,1.5,1.2,2C36.4,1073.9,35.8,1073.9,35.2,1073.4L35.2,1073.4z M46.5,1063.2c-2.3-2.6-4.4-5.6-4.6-6.9
		c-0.2-1.2-0.8-2.4-1.4-2.7c-0.6-0.5-1.2-1.7-1.7-2.7c-0.9-3.1,1.2-0.6,5.6,6.4c2.3,3.5,5.3,7.3,6.9,8.2c2,1.2,2.3,1.8,1.1,2.1
		C51.6,1067.9,49,1065.8,46.5,1063.2z M30.2,1067.5c-0.6-0.6-0.3-1.2,0.3-1.4c0.8-0.2,1.4,0.3,1.5,1.1c0.2,0.8,0,1.4-0.3,1.4
		C31.4,1068.5,30.6,1068.1,30.2,1067.5L30.2,1067.5z M129,1051.1c-0.3-2.1,0.3-2.6,1.7-1.1c0.5,0.6,0.5,1.5-0.3,2
		C129.7,1052.6,129.1,1052.3,129,1051.1z M26.1,1065.5c-0.5-0.6-0.5-1.5,0.3-2c0.6-0.6,1.2-0.2,1.5,0.9
		C28.2,1066.7,27.4,1067.2,26.1,1065.5z M64.2,1057.8c-7.6-1.7-11-4-16.9-11.5c-2-2.4-3.8-3.8-4.1-3.1c-1.1,2.4-2.6,2-3.8-1.2
		c-0.6-1.7-0.6-3.1,0-3.2c0.6-0.2,1.2,0.6,1.4,1.7c0.2,1.1,0.9,1.8,1.5,1.7c1.5-0.3,1.2-2.9-1.1-6.9c-0.9-1.7-2.6-2.9-3.7-2.7
		c-1.5,0.3-1.8-0.6-1.7-3.4c0.2-2,0.8-3.8,1.4-4.1c1.7-0.9,0.8-2.9-1.1-2.6c-1.8,0.3-2.6,4.3-2,9c0.3,1.5-0.2,2.9-0.8,3.1
		c-0.8,0.2-1.2-0.8-1.2-2.1c0.3-10.8,0.6-11.8,2.7-11.5c1.4,0.2,2.1-0.5,2-1.4c-0.5-2.7,3.4-15.7,4.4-16c1.7-0.3,1.7,1.8,0,3.8
		c-1.4,1.5-2.4,11-1.4,11.6c0.3,0.2-0.3,0.9-1.2,1.8c-0.9,0.9-1.1,1.4-0.2,1.2c0.9-0.2,1.7,1.5,2,4c2,16.2,14.4,29.9,27,30.2
		c2.9,0,5.2-0.2,5-0.6c-0.2-1.8,4.7-8.9,5.6-7.8c0.5,0.6-0.3,2.7-1.7,4.9c-1.4,2.1-2.1,3.8-1.5,3.7c0.6-0.2,0.3,0.6-0.8,1.4
		C72.3,1059.7,72.8,1059.7,64.2,1057.8L64.2,1057.8z M38.1,1027.1c-0.5-0.8-0.6,0-0.5,1.7c0.2,1.7,0.6,2.4,0.9,1.5
		C38.9,1029.3,38.7,1027.9,38.1,1027.1z M23,1058.9c-2.3-4-2.7-6.7-1.4-7c1.2-0.2,4.4,8.4,3.7,9.5
		C25.2,1061.8,24.1,1060.7,23,1058.9L23,1058.9z M85.8,1049.9c-1.5-1.8-0.9-10.5,0.6-10.8c1.2-0.2,1.5,0.8,1.2,3.4
		c-0.3,2-0.2,4.3,0.3,5C88.8,1049,86.8,1051.3,85.8,1049.9z M128.2,1042.6c-1.1-2.3-4.3-11-4.7-13.1c-0.8-3.1-7-14.7-11.1-20.5
		c-2.1-3.1-6.9-7.9-10.5-11c-3.7-3.1-6.7-6.1-6.9-7s2.7,0.9,6.4,3.8c3.7,2.9,6.6,4.7,6.4,4c-0.2-0.8-0.8-1.8-1.5-2.1
		c-0.8-0.3-1.5-1.2-1.5-2c-0.2-0.9,0.6-0.9,2,0c1.2,0.8,2.3,2.1,2.4,3.1c0.2,1.1,0.8,1.4,1.2,0.9c0.5-0.5,2.6,1.2,4.6,3.7
		c2,2.4,4,4.4,4.6,4.4c0.6,0,2,1.1,3.1,2.7c1.2,1.5,2.6,2.4,3.4,1.8c0.6-0.6,0.9-0.3,0.6,0.3s0.5,2.7,1.7,4.4
		c1.2,1.7,1.7,3.2,1.1,3.4c-0.6,0.2-1.7-0.8-2.3-1.8c-1.5-2.9-17.7-18.3-18.3-17.6c-0.3,0.3,0.9,2.1,2.6,3.8s4.3,4.6,5.6,6.4
		c1.5,1.7,3.1,2.7,3.7,2.4c0.5-0.5,2,1.5,3.4,4.3c1.4,2.7,3.2,5.3,4,5.8c1.1,0.5,1.1,0.8,0,0.9c-1.5,0.3-3.1-1.7-6-7.3
		c-0.6-1.2-1.4-2-1.7-1.5s1.4,5,3.7,10.2c2.3,5.2,4.7,11.6,5.3,14.2C130,1043.8,129.7,1045.5,128.2,1042.6L128.2,1042.6z
		 M27.6,1057.8c-0.5-0.3-1.1-1.8-1.4-3.4c-0.3-2.1-0.2-2.3,1.1-0.9c1.2,1.4,1.5,1.2,1.8-1.4l0.3-3.1l2.1,2.7
		c2.6,3.4,2.9,4.6,1.2,4.7c-0.8,0.2-1.4-0.6-1.5-1.8c-0.2-1.1-0.8-1.5-1.5-0.9c-0.6,0.6-0.8,1.4-0.3,2
		C30.6,1057.1,28.8,1058.8,27.6,1057.8L27.6,1057.8z M89.6,1043.6c-0.6-0.6-0.6-2,0-2.7c0.8-1.1,1.2-0.8,1.4,1.2
		C91.3,1045.2,91.1,1045.5,89.6,1043.6L89.6,1043.6z M34.8,1052.2c-0.8-1.7-2.3-5.6-2.7-7.9c-0.5-1.5-1.1-2.7-1.4-2.7
		s-1.5-4.4-2.6-9.9c-1.1-5.5-1.5-10.1-0.9-10.2c0.6-0.2,1.7,3.8,2.6,8.5c1.4,7.6,4,15,7,20.3c0.6,0.9,0.3,1.8-0.5,2
		C35.5,1052.3,34.8,1052.3,34.8,1052.2L34.8,1052.2z M27.3,1046.2c-0.5-1.2-0.8-4.1-0.8-6.7c0-2.6,0.5-3.4,0.8-1.8s1.2,4.4,2,6.4
		C30.6,1048.1,28.8,1050.1,27.3,1046.2z M36.3,1043.8c-1.1-1.7-1.4-3.1-0.9-3.1c1.1-0.2,3.8,4.7,3.1,5.6
		C38.4,1046.5,37.4,1045.5,36.3,1043.8L36.3,1043.8z M19.5,1046.7c-2-3.4-2-5.2-0.2-3.8c0.9,0.6,1.5,2.3,1.5,3.5
		C20.7,1048.8,20.7,1048.8,19.5,1046.7L19.5,1046.7z M23.9,1047.8c-0.2-0.3-1.1-2.7-1.8-5.5c-1.1-3.7-1.1-4.6,0.2-3.8
		c0.9,0.6,1.8,3.2,1.8,5.5C24.2,1046.4,24.2,1048.1,23.9,1047.8z M14.6,1046.1c-0.3-1.4-0.2-2.1,0.5-1.8c0.5,0.3,0.8,1.4,0.5,2.4
		C15.2,1047.8,14.9,1047.6,14.6,1046.1L14.6,1046.1z M59.2,1038c-1.5-1.5-2-2.9-1.2-3.5c0.6-0.6,0.8-2.3,0.3-4
		c-0.6-2.3-0.3-3.1,1.4-3.1c1.2,0,2.4-0.8,2.9-1.7c0.5-1.1,0.2-1.2-0.6-0.5c-2,1.8-3.7-2.3-2.4-6.1c1.5-4.3,2.4-4.3,5.3,0
		c3.7,5.3,4.7,19.8,1.5,20.3c-0.6,0.2-1.1-0.3-0.8-1.1c0.6-1.4-3.4-4.7-5.2-4.4c-1.8,0.3-0.9,2.7,1.2,3.2c1.1,0.3,2.1,0.9,2.1,1.5
		C64.1,1041,61.6,1040.6,59.2,1038L59.2,1038z M65.2,1025.6c-2.1-8.4-3.8-9.6-4.7-3.4c-0.3,2.3,0,2.7,1.4,1.8c1.4-0.8,2-0.3,2.3,2
		c0.6,4.1-0.3,5.2-3.1,3.4c-2.6-1.8-3.5-1.2-2,1.5c0.6,1.1,2.4,1.7,4.3,1.4C66.7,1031.9,66.8,1031.7,65.2,1025.6L65.2,1025.6z
		 M127.6,1029.1c-0.6-0.5-1.1-1.2-1.2-2c-0.2-0.8,0.5-0.8,1.5,0c0.9,0.8,1.5,1.5,1.2,2S128.1,1029.6,127.6,1029.1L127.6,1029.1z
		 M33.9,1037.8c-0.3-2.1,0.3-2.6,1.7-1.1c0.5,0.6,0.5,1.5-0.3,2C34.8,1039.4,34,1038.9,33.9,1037.8z M17.1,1037.4
		c-0.3-2.3,0-3.8,0.8-3.5c1.5,0.6,1.8,4.9,0.6,6.6C18,1040.9,17.4,1039.5,17.1,1037.4L17.1,1037.4z M37.5,1035.9
		c-0.2-1.1,0.3-1.7,1.1-1.4c0.8,0.3,1.5,1.1,1.5,1.8c0.2,0.6-0.3,1.2-1.1,1.4C38.3,1037.7,37.7,1036.9,37.5,1035.9z M50.8,1034.6
		c0.3-0.8-0.2-1.4-0.9-1.5c-0.8-0.2-1.8-3.1-2.3-6.6c-0.5-3.5-1.1-7.6-1.4-9.2c-0.3-1.5,0.2-2.9,0.8-3.1c0.8-0.2,1.5,2.9,2.1,7.8
		c0.6,5.3,1.5,8.7,3.1,10.5c2,2.3,2,2.6,0.2,2.9C51.1,1035.7,50.5,1035.2,50.8,1034.6z M54.6,1033c-0.6-0.5-1.1-1.7-1.2-2.7
		c-0.2-1.7,0-1.7,1.4,0.2C56.4,1032.5,56.4,1034.3,54.6,1033L54.6,1033z M13.1,1038.4c-0.6-0.5-0.8-1.7-0.6-2.7
		c0.3-1.5,0-1.7-1.2-0.8c-1.2,1.1-1.4,0.9-0.5-0.5c1.8-2.7,3.7-1.7,3.4,1.8C14.2,1037.8,13.7,1038.9,13.1,1038.4z M23.3,1035.7
		c-0.3-1.4-0.2-2.1,0.5-1.8c0.5,0.3,0.8,1.4,0.5,2.4C23.9,1037.4,23.6,1037.1,23.3,1035.7L23.3,1035.7z M24.5,1032.5
		c-0.8-1.1-1.8-4.4-2.3-7.5c-0.6-3.2-1.8-5.8-3.1-6.3c-1.7-0.8-1.7-0.9,0.2-1.2c2-0.3,2.6-1.8,1.7-4.4c-0.2-0.5,0.3-1.1,1.1-1.1
		c0.8,0,1.2,0.8,0.9,1.8c-0.3,1.2-0.6,3.5-0.8,5.3c-0.3,2.6,0,2.9,1.8,2c1.8-1.1,2-0.8,0.9,2c-0.6,1.7-0.5,5,0.3,7.2
		C26.8,1034.8,26.5,1035.5,24.5,1032.5z M51.6,1025.3c-0.6-2.4,0.5-3.5,2.3-2.1c1.1,0.8,0.5,4.3-0.8,4.6
		C52.6,1027.8,51.9,1026.7,51.6,1025.3z M11.7,1028.4c-1.2-5.2-1.2-8.7-0.3-10.1c0.5-0.6,1.1,1.5,1.2,5
		C13.1,1031.3,12.8,1033.1,11.7,1028.4L11.7,1028.4z M18.9,1027.5c-0.8-1.8-1.2-3.8-0.9-4.3c0.9-1.2,2.7,2.7,2.6,5.3
		C20.4,1030.2,20,1029.9,18.9,1027.5z M29.9,1024.9c-0.6-0.6-0.3-1.2,0.3-1.4c0.8-0.2,1.4,0.3,1.5,1.1c0.2,0.8,0,1.4-0.3,1.4
		S30.5,1025.5,29.9,1024.9L29.9,1024.9z M6.2,1026.1c-0.2-0.6,0.3-1.7,0.9-2.1c0.6-0.5,1.2-0.2,1.4,0.9c0.2,1.1-0.3,2-0.9,2.1
		C7,1027.1,6.4,1026.7,6.2,1026.1z M14.6,1022c-0.3-2.1,0-3.7,0.6-3.4c1.1,0.5,1.5,7,0.5,7.2C15.4,1025.8,14.9,1024.1,14.6,1022
		L14.6,1022z M27,1019.7c-1.2-3.7-1.1-7.2,0.2-10.8c1.7-4.9,1.7-5.8,0.2-5.6c-0.6,0.2-1.5,1.8-2.1,3.8c-0.6,2.1-1.4,3.1-1.8,2.3
		c-1.2-2.1,2.7-8.7,4.4-7.3c0.9,0.6,1.8-0.2,2.6-2.4c0.6-1.8,1.7-3.5,2.3-3.7c1.7-0.3,1.5,1.8-0.2,3.8c-2.1,2.4-4.4,10.5-4.3,15.3
		C28.4,1018.8,27.6,1021.7,27,1019.7L27,1019.7z M30,1016.5c0.5-11.1,9.5-27.9,16.9-31.8c5-2.6,4.4-3.5-0.9-1.5
		c-2.1,0.8-5.3,3.7-7.2,6.3c-3.4,4.9-5.2,6.3-5.5,4c-0.2-0.8,0.6-1.4,1.7-1.5c1.1-0.2,1.8-0.9,1.7-1.5c-0.6-3.4-5.5,1.5-6.1,6.1
		c-0.2,1.4-1.2,2.7-2.3,2.9c-2.4,0.5-1.2-2.9,3.4-9.5c2.7-4,3.1-4.7,1.1-4c-2.6,0.9-8.9,13-11,20.8c-0.6,2.4-1.5,4.3-2,4
		s-0.2-2.3,0.5-4.4c0.8-2.1,1.4-4.4,1.4-5.2s1.2-3.1,2.4-5.3c1.2-2.3,2.3-4.7,2.1-5.6c-0.2-0.9,0.9-2.4,2.3-3.4
		c1.4-1.1,4.4-3.4,6.6-5.2c3.7-3.1,3.7-3.1,1.2-0.3c-4.7,5.2-1.7,4.1,6.1-2.3c4.1-3.4,6.6-6,5.5-5.8c-1.7,0.3-1.7,0.2-0.2-1.2
		c1.4-1.2,1.2-1.5-0.9-1.2c-2.1,0.2-2-0.2,0.8-1.8c1.8-1.2,2.7-2.4,2.1-2.9c-0.6-0.5,0-0.6,1.2-0.3c1.4,0.3,2.1-0.2,2-1.1
		c-0.2-1.2,1.8-1.7,7.8-2.1c6.1-0.5,7.3-0.8,4.9-1.4c-3.7-1.1-4.1-2.3-0.9-2.9c1.4-0.2,2.1,0.2,1.8,0.9c-0.3,0.8,0,0.9,0.5,0.5
		c2.1-1.8,9.8-0.5,11.3,2c1.4,2.4,1.2,2.4-2.6,1.8c-3.1-0.6-4.3-0.3-4.7,1.1c-0.5,1.2-2,1.7-4.4,1.4c-3.7-0.5-10.7,0.9-16.9,3.2
		c-0.9,0.3-0.3,2.9,1.4,4.7c0.6,0.8,0.5,1.7-0.3,2.3c-0.8,0.6,0.5,0.5,2.9,0c2.9-0.6,4.3-0.5,4.3,0.6c0,0.9,1.2,1.4,3.2,1.1
		c1.8-0.3,2.7-1.1,2.3-1.7c-0.6-0.6-0.2-1.2,0.8-1.4c2.6-0.5,16.8,2.3,19.1,3.5c1.1,0.6,1.8,0.6,1.7-0.2c-0.2-1.1-6.3-3.4-15.1-5.5
		c-2.9-0.8-2.6-0.8,1.8-0.8c2.7,0,6,0.6,7,1.4c1.1,0.8,2.6,1.4,3.2,1.2c0.6-0.2,4.4,1.7,8.4,4c3.8,2.3,7.3,3.8,7.6,3.5
		c0.6-0.9-12.7-9.3-14.5-9c-0.8,0.2-2.1-0.3-3.1-1.1c-2.4-1.8-11.1-3.2-15.7-2.4c-2.1,0.3-4.4,0.2-5-0.5c-2.4-2.7,16.8-1.2,24.1,2
		c7.8,3.4,24.4,14.8,24.7,17.1c0.2,1.4-0.6,1.2-2.6-0.8c-1.7-1.4-3.7-3.2-4.6-4s-2.3-0.9-3.4-0.3c-1.2,0.6-3.7-0.3-6.9-2.4
		c-2.7-2-4.9-2.9-4.7-2.1c0.2,0.8,2.1,2.6,4.6,4.1c2.4,1.5,4.4,3.4,4.6,4.1c0.2,0.8,1.2,0.8,2.7,0.2c1.8-0.9,3.8-0.2,8.1,3.1
		c3.1,2.4,6,4,6.3,3.5s-0.2-1.5-1.1-2.3c-0.9-0.8-1.5-2.1-1.4-3.2c0.2-1.1,1.2-0.5,2.4,1.5c1.2,1.8,2.6,3.2,3.1,3.1
		c0.5-0.2,3.1,2.1,5.8,4.9s4.6,5,4.1,5.2c-1.1,0.2-5.6-3.7-9.2-7.3c-1.2-1.4-2.7-2.1-3.4-1.7c-0.6,0.5,0.5,2.4,2.4,4.3
		c7,6.7,7.6,7.6,6.4,7.8c-0.6,0.2-3.4-2-6-4.6c-5.2-5.2-9.9-9-15.3-12.1l-3.5-2l3.7,2.9c2,1.7,3.2,3.4,2.9,4s-4.1-1.8-8.2-5.2
		c-11.6-9.3-20.2-12.8-21.1-8.5c-0.3,1.2,0.2,2,1.1,1.7c0.8-0.3,2.4-0.5,3.5-0.6c2.7-0.2,14,6.9,13.9,8.7c0,0.8,0.6,2.7,1.4,4.3
		c2.6,4.9-0.9,6.1-5.6,2.1c-4.3-3.7-4.7-5.8-0.6-3.4c2.1,1.2,2.3,1.2,1.2-0.8c-0.9-1.7-0.8-2.1,0.8-1.8c3.5,0.8,1.7-1.2-4.1-4.6
		c-6-3.4-8.1-3.8-7.8-1.5c0.2,0.8-1.2,0.6-2.9-0.2s-6-1.4-9.5-1.4c-4.6,0.2-5.8-0.2-4.1-1.1c1.2-0.8,4.1-1.1,6.3-0.8
		c2.9,0.3,4.3-0.2,5.5-1.7c0.9-1.4,1.1-2.1,0.2-2c-0.8,0.2-1.5,0.9-1.7,1.7c-0.2,1.1-0.9,1.2-3.2,0.5c-1.7-0.6-4.9-0.8-7.5-0.3
		c-2.4,0.5-4.6,0.2-4.7-0.6s-0.8-1.2-1.4-1.1s-0.8,1.1,0,2.3c1.1,2,1.1,2-1.7,0.3c-2-1.2-3.4-1.2-4.4-0.3c-1.2,1.1-1.2,1.4,0,1.2
		c0.9-0.2,2.6,0.5,3.7,1.2c1.7,1.2,1.5,1.7-1.5,2.7c-3.7,1.4-10.2,7-11.6,10.1c-0.5,0.9-1.4,2.6-2,3.7c-1.4,2.1-3.7,7.6-3.5,8.5
		c0,0.3,0.6,0.6,1.4,0.5c0.8-0.2,1.2-0.9,1.1-1.8c-0.5-2.9,8.5-15.1,13.1-17.9c6-3.7,22.4-5.5,18.5-2.1c-0.8,0.6-3.2,0.9-5.3,0.8
		c-9.5-1.2-20,6.9-23.8,18.5c-0.9,2.6-2,3.8-3.7,3.5c-1.7-0.2-2.6,0.8-3.1,3.4c-0.3,2-1.1,4.7-1.5,6.3
		C30,1019.8,29.9,1019.5,30,1016.5L30,1016.5z M47.1,978.9c3.4-3.7,0.8-2.4-4.1,2c-2.4,2.1-5,4-5.8,4.1c-0.8,0.2-1.2,1.1-0.9,2
		C36.4,988.8,40.6,985.8,47.1,978.9z M60,963.8c-0.9-0.2-2.3,0-3.2,0.5c-0.8,0.5,0,0.6,1.7,0.5C60.1,964.4,60.9,963.9,60,963.8
		L60,963.8z M33.2,1015.2c0.5-2.1,1.2-4.1,1.8-4.1c1.4-0.2,1.4,0.3,0.2,4.4C34,1020.4,32.3,1020.1,33.2,1015.2z M5.8,1017.7
		c0.3-1.1,1.2-2.1,2.3-2.3c1.5-0.3,1.7,0.2,0.6,1.8c-0.8,1.2-1.7,2.1-2.3,2.3S5.5,1018.8,5.8,1017.7z M15.2,1013
		c0.2-4.4,1.4-9.3,2.9-10.8c0.5-0.5,0.8-1.4,0.8-2c0-0.8,1.1-4.1,2.1-7.5c1.7-4.6,4.4-8.1,10.4-13.6c4.6-4.1,9-7.5,10.1-7.6
		c1.7-0.3-1.2,2.6-6.3,6c-1.2,0.9-4.6,4.3-7.3,7.5c-4.6,5.5-6.3,9.6-11.9,29.2C15.2,1017.2,15.2,1017.2,15.2,1013L15.2,1013z
		 M18.1,1015.2c-0.5-0.6-0.5-1.5,0.3-2c0.6-0.6,1.2-0.2,1.5,0.9C20.1,1016.3,19.5,1016.8,18.1,1015.2z M94.8,1002.1
		c-1.5-2.6-0.3-4.1,1.5-2c1.8,2.1,2.1,3.5,0.6,3.7C96.5,1003.9,95.4,1003.2,94.8,1002.1L94.8,1002.1z M10.8,1014
		c-0.2-0.6,0.5-2.4,1.2-4c1.2-2.3,1.5-2.4,1.8-0.8c0.2,1.1-0.3,2.9-1.2,4C11.7,1014.3,11,1014.8,10.8,1014z M6.8,1013.4
		c-0.2-0.8,0.6-2.1,1.4-3.1c0.9-1.1,1.7-1.4,1.8-0.6c0.2,0.8-0.6,2.1-1.4,3.1C7.7,1013.7,6.8,1014,6.8,1013.4L6.8,1013.4z
		 M3.8,1010.2c-0.3-2.3,2-9.5,4.1-12.7c0.8-1.1,1.2-2.7,1.1-3.7c-0.2-0.9,0.6-2.4,1.7-3.4c1.1-0.9,1.5-1.8,1.1-2.3
		c-1.4-0.9-6.1,6.1-5.3,7.8c0.5,0.8-0.2,1.5-1.2,1.7c-1.1,0.2-1.8,0.9-1.8,1.5c0.2,0.8-0.5,1.4-1.2,1.5c-2.1,0.3,3.2-9.3,10.4-18.5
		c6.3-8.2,7.2-10.1,4.7-9.6c-0.8,0.2-0.8,0.8-0.2,1.5c0.6,0.8,0.5,1.1-0.3,0.8c-0.8-0.3-4.1,3.5-7.5,8.5c-3.8,5.8-6.7,9-7.9,8.9
		c-1.7-0.3-1.7-0.6,0-2c1.1-0.8,4.9-5.6,8.5-10.8c4.7-6.6,7.2-9,8.2-8.1c1.1,0.9,2.1,0.5,3.4-1.2c2-2.7,2.7-3.1,3.1-1.5
		c0.2,1.1-5.8,9.5-10.5,14.5c-1.5,1.7-2.3,3.4-1.7,3.7c1.2,0.9,11.9-11.6,11.8-13.9c-0.2-0.9,1.1-1.8,2.7-2
		c3.7-0.6,10.5-5.3,9.5-6.6c-0.8-0.8,5.5-4.1,12.4-6.6c1.7-0.6,3.2-1.5,3.5-2c0.3-0.6-1.2-0.3-3.4,0.5c-2.7,1.1-3.8,0.9-3.4-0.2
		c1.2-2.7,26.4-3.2,39.8-0.6c2.1,0.5,7.3,2.3,11.3,4.1c6.7,3.1,9.9,3.2,7.6,0.6c-2.3-2.6-24.7-8.2-35.3-8.7
		c-6.3-0.3-9.8-0.9-7.6-1.4c2.1-0.5,7.6-0.5,12.2-0.2c4.6,0.3,9.2,0.6,10.1,0.5c0.9,0,1.7,0.5,1.8,0.9s0.9,0.9,1.7,0.8
		c0.9-0.2,3.4,0.3,5.5,1.1c2.1,0.8,4.4,0.8,4.9,0.2c0.5-0.6-1.5-1.8-4.6-2.6c-3.1-0.8-5.5-1.8-5.5-2.4c-0.2-0.6,2.9-0.2,6.6,1.1
		c3.7,1.1,6.9,2.6,7,3.4s-0.3,1.1-1.1,0.8c-0.8-0.3-1.5,0.2-1.8,0.9s0,1.4,0.6,1.2c1.5-0.3,7.3,3.4,7.5,4.9c0.2,0.6-0.3,2-1.1,2.9
		c-0.9,1.4-2.3,1.2-5.5-0.5c-9.2-4.7-25.6-7.9-37.1-7.2c-3.2,0.2-6.6,0.2-7.3-0.2c-0.8-0.3-1.4,0-1.2,0.8c0.2,0.8-0.6,1.5-1.7,1.7
		c-1.1,0.2-1.8,0.9-1.7,1.5c0.3,1.5,0.5,1.4,7.2-1.1c4.1-1.5,5-1.5,4.7,0c-0.2,1.1-1.4,2-2.4,2c-6.7,0.5-11.5,2-11.1,3.8
		c0.5,2.4-1.4,2.7-3.8,0.6c-1.4-1.2-2.3-1.2-3.1-0.2c-0.8,1.1-0.6,1.8,0.9,2.4c1.5,0.6,1.2,1.2-1.5,2.3c-7.9,3.4-25.6,22.3-27,29
		c-1.1,4.9-0.3,6.6,1.2,2.6c1.5-4.1,2-3.1,0.8,1.8c-0.8,2.6-1.4,3.1-2.3,2c-1.1-1.2-1.5-1.1-2.1,0.6c-0.5,1.1-1.4,1.7-2,1.4
		c-0.6-0.5-0.5-1.7,0.3-2.9c0.8-1.2,0.9-2.1,0.5-2c-0.5,0,0-1.2,0.9-2.9c2.9-5,13.9-20.3,14-19.5c0,0.5,0.8,0.2,1.5-0.8
		c3.4-3.8,10.1-9.3,11.8-9.6c1.8-0.3,2.3-2.9,0.5-2.7c-2.7,0.5-16.2,11.8-20.6,17.6c-5.3,6.9-12.2,21.2-11.8,24.4
		c0.2,0.9-0.2,2.3-0.9,2.7S3.9,1011.4,3.8,1010.2L3.8,1010.2z M47.6,961.3c1.4-1.2,0.9-1.4-1.8-0.9c-1.8,0.3-3.4,1.1-3.2,1.8
		C42.9,963.8,45.5,963.3,47.6,961.3z M119,991.3c-1.4-1.1-2.3-2.1-2-2.1s-2-1.8-5.2-4c-3.2-2.1-8.5-5.6-11.9-7.9
		c-3.4-2.3-10.1-5.6-15-7.6c-9.5-3.8-10.1-5.3-0.9-2.3c9.8,3.4,11.6,4.1,10.8,5c-0.5,0.5-0.2,0.9,0.5,0.8c0.6-0.2,1.7-0.9,2.3-1.7
		c0.8-0.9,3.7,0,8.7,2.6c4.3,2.3,7.9,4.6,8.2,5.2c0.3,0.6,1.1,0.6,1.7,0.2c0.6-0.5,1.2,0.3,1.5,2l0.5,2.7l-3.8-2.4
		c-2.1-1.4-6.4-4.3-9.6-6.4c-3.2-2.1-6.1-3.5-6.7-3.1c-0.8,0.8,8.7,8.2,10.1,7.9c0.3,0,2.9,1.8,5.8,4.1c2.9,2.3,5.6,4,6,3.7
		c0.3-0.3,0.9,0.8,1.4,2.4c0.5,1.7,0.6,2.9,0.5,2.9C121.8,993.4,120.6,992.3,119,991.3L119,991.3z M56,982c-0.2-0.8,0.3-1.4,1.1-1.5
		c0.8-0.2,1.4,0.3,1.5,1.1s-0.3,1.4-1.1,1.5S56.1,982.7,56,982z M108.5,972.6c-1.8-1.1-7.8-3.8-13-6.3c-5.3-2.4-8.9-4.6-7.8-4.7
		c1.1-0.2,5.8,1.7,10.8,4s9.5,3.8,10.1,3.4c0.6-0.5,0-1.4-1.4-2.1c-2.1-1.1-2.1-1.4-0.6-2.3c1.1-0.6,2-0.3,2.1,0.5
		c0.5,2.3,1.5,4.9,3.1,7.2C113.5,974.8,112.8,974.9,108.5,972.6z M1.2,986.1c-0.3-1.7,6.9-11.9,12.1-17.4c3.7-3.8,4.9-6.6,2.6-6.1
		c-0.5,0.2-3.8,3.8-7.3,8.2c-3.5,4.4-6.6,7.9-6.9,7.6c-1.1-0.8,7.2-12.2,8.9-12.5c0.9-0.2,1.4-0.8,0.9-1.4c-0.5-0.6,0.2-1.5,1.5-2.3
		s2.3-1.7,2.3-2.4s0.6-1.2,1.5-1.4c0.9-0.2,4.3-2.1,7.3-4.4c3.2-2.4,4.4-3.7,2.6-3.1c-6.3,2.4-13.6,8.1-18.2,13.9
		c-2.6,3.4-4.9,6-5,6c-0.2,0-0.9-0.9-1.5-2c-0.6-1.1-0.8-1.7-0.2-1.4c1.2,0.9,5.3-2.1,5-3.8c-0.2-0.8-0.8-0.8-1.5-0.2
		c-0.8,0.8-1.1,0.5-0.6-0.5c0.3-0.9,1.8-1.8,3.1-2c1.4-0.2,2.3-0.9,2.3-1.5c-0.2-0.9,10.1-7.3,17.9-11.1c1.2-0.6,2-2,1.7-3.2
		c-0.3-1.8-0.5-1.8-1.2-0.3c-0.5,1.1-2.1,2.4-3.7,2.9c-1.5,0.5-6.3,3.2-10.2,6c-4,2.7-7.3,4.4-7.2,3.7c0.2-0.8,0.6-1.2,1.2-1.2
		c0.6,0.2,1.4-0.8,1.8-1.8c0.9-2.1,11-8.2,14.5-8.9c1.2-0.2,1.8-0.9,1.4-1.5c-0.5-0.6,0.6-1.7,2.3-2.4c2.1-0.9,3.5-0.9,4,0
		c0.5,0.8,1.2,1.2,2,1.2c0.8-0.2,0.9-0.9,0.3-1.8c-0.6-1.1,0-2.1,1.7-2.9c4.1-1.8,5.3-1.7,3.2,0.5c-1.1,1.1-2.3,3.5-2.6,5.5
		c-0.6,3.1-0.5,3.5,1.7,3.2c1.4-0.2,2.4-0.9,2.3-1.7c-0.2-0.8,1.1-1.2,2.7-1.1c1.7,0.2,5.2-0.6,7.8-1.8l4.9-2.1l-6.6,1.5
		c-6,1.4-9,0.6-5.3-1.2c0.8-0.5,0.2-0.3-1.5,0.3c-2.3,0.8-2.7,0.6-2-0.6c1.8-2.6,8.1-4.4,7.6-2.1c-0.2,1.1,0.6,1.7,2,1.5
		c1.5-0.2,2-0.8,1.4-1.8c-0.6-0.9-0.3-1.8,0.5-2s1.8,0.6,2.4,1.5c0.6,0.9,1.5,1.4,2.1,0.8c0.8-0.6,0.5-1.4-0.8-1.8
		c-3.2-1.4,10.7-0.6,22.3,1.2c0.3,0,3.1,0.8,6.1,1.5c8.4,2.3,3.7,3.2-5.6,1.1c-10.7-2.4-15.7-2.6-19.4-0.5l-2.9,1.8L60,941
		c5.3-0.9,16.5,0,22.1,1.8c2.9,0.9,6.3,1.7,7.5,1.4c1.1-0.2,1.7,0.3,1.4,1.1c-0.3,0.9-2.1,0.9-4.7,0c-3.1-1.1-4.4-0.9-5.3,0.2
		c-0.8,1.1-0.6,1.5,0.9,1.2c1.1-0.2,2.6,0.3,3.2,0.9c0.8,0.8,0.2,1.1-1.4,0.9c-11.3-1.5-24-1.1-35.1,1.2c-10.5,2.3-11.6,2.3-9.6,0.2
		c2-2.1,2-2.1-1.2-1.1c-1.8,0.6-3.1,0.6-2.9,0s-0.6-1.1-2.1-0.8c-1.4,0.2-2.4,1.1-2.4,1.7s0.8,0.9,1.4,0.3c0.6-0.6,1.1-0.2,1.1,0.8
		s0.6,1.4,1.5,1.1c0.9-0.3,1.4,0,1.1,0.8c-0.3,0.8-1.4,1.5-2.4,1.7c-1.1,0.2-1.7,0.9-1.5,1.7c0.2,0.8-0.5,1.1-1.2,0.8
		s-2.7,0.8-4.3,2.6c-1.5,1.7-3.7,3.2-4.4,3.4c-0.9,0.2-2.1,1.2-2.9,2.4c-1.8,3.1,0.3,2.3,5.5-2.1c5.2-4.4,7.3-5.3,5.5-2.1
		c-0.8,1.2-0.9,2.1-0.3,2c0.5-0.2,0.3,0.8-0.3,2c-0.8,1.2-1.8,2.3-2.6,2.3c-0.8,0.2-0.3-0.8,0.8-2c2.1-2.1,2.1-2.3-0.3-1.8
		c-1.4,0.2-3.5,1.8-5,3.7c-2.1,2.7-2.7,3.1-4,1.7c-1.5-1.8-3.1-0.3-11.8,12.2C3.5,984.4,1.3,986.8,1.2,986.1L1.2,986.1z M31.3,952.8
		c-2.3-0.5-15.1,8.9-13.7,9.8c0.5,0.3,4-1.7,7.9-4.6C29.4,955.1,32,953,31.3,952.8z M79.8,944.7c-0.2-0.6-2.1-1.2-4.4-1.4
		c-2.3-0.2-5.2-0.5-6.3-0.5c-4.1-0.3-24.1,3.5-26,4.9c-1.2,1.1,1.4,0.9,8.1-0.2c12.1-2,24.4-2.4,25.6-1.1
		C78,947.8,80.1,946.4,79.8,944.7L79.8,944.7z M93.4,969.3c-7.6-3.1-12.4-5.3-11.3-5.5c2-0.3,15.7,4.4,15.9,5.5
		C98.1,970.5,96.6,970.5,93.4,969.3z M40.9,976c0.8-1.2,1.8-2.3,2.6-2.3c0.8-0.2,0.8,0.8,0,2s-1.8,2.3-2.6,2.3S40.1,977.2,40.9,976z
		 M57.8,972.6l-5.2-0.2l5.3-1.1c2.9-0.6,5.3-0.5,5.5,0.3c0.2,0.8,0,1.2-0.2,1.1C63.2,972.8,60.6,972.8,57.8,972.6z M51.6,970.7
		c0-0.3,1.2-0.9,2.9-1.5c1.7-0.6,3.1-0.6,3.2,0s-1.2,1.4-2.9,1.5C53.1,970.8,51.7,970.8,51.6,970.7z M81.8,961.2
		c-1.4-0.3-2.1-0.9-1.5-1.5c1.2-1.1,5.3,0.2,4.6,1.4C84.7,961.3,83.3,961.5,81.8,961.2L81.8,961.2z M31.4,963.6
		c0.9-2.7,5.3-5.8,7.2-5c0.6,0.3,1.2-0.8,1.4-2.3c0.2-1.5,0.3-2.7,0.5-2.9c0.2-0.2,3.4-0.9,7.2-1.8c4.4-1.2,7.3-1.4,8.1-0.5
		c0.8,0.9,0,1.2-2.6,1.2c-5-0.2-11.6,2.4-11.3,4.3c0.3,2-2.6,4.1-7.8,5.5c-0.8,0.3-1.1,1.1-0.6,2s0.2,1.7-0.9,1.8
		C30.8,966.2,30.6,965.6,31.4,963.6z M92.2,947.1c0.3-0.5,1.4-0.8,2.4-0.5c1.1,0.3,0.8,0.6-0.6,0.9
		C92.6,947.8,91.7,947.6,92.2,947.1L92.2,947.1z M11.9,947.8c0.9-0.8,2.6-1.7,3.5-1.8c1.7-0.3,1.7-0.2,0.2,1.2
		c-0.9,0.8-2.6,1.7-3.5,1.8C10.3,949.1,10.3,949,11.9,947.8z M77.1,935.4c-1.8-0.8-5-1.1-6.9-0.8c-1.8,0.3-3.5-0.2-3.7-0.9
		c-0.2-0.8-1.5-0.9-3.4-0.3c-1.7,0.6-3.4,0.8-3.8,0.3c-0.3-0.5-4.6,0-9.2,0.9c-4.9,0.9-7.5,1.1-6.1,0.3c1.2-0.8,8.2-2.3,15.4-3.7
		c10.8-1.8,12.8-2,11.9-0.3c-0.9,1.5-0.2,2,3.8,2.1c2.7,0.2,5.3,0.2,5.6,0c0.3-0.2,1.2,0.5,1.8,1.4
		C83.8,936.8,81.5,937.1,77.1,935.4L77.1,935.4z M17.8,944.9c0-0.5,1.2-1.5,2.9-2.6c1.8-1.1,2.6-2.3,1.8-3.1
		c-0.6-0.8-0.6-1.1,0.2-0.8c2,0.8,15.4-5,16.3-7c0.6-1.4,1.1-1.5,2.4-0.5c2,1.4,1.5,1.7-11.8,8.4c-4.3,2.1-8.7,4.4-9.8,5.2
		C18.9,945.2,18,945.3,17.8,944.9z M43.2,931c-0.6-2.3-0.2-2.6,3.5-2.4c10.5,0.3,16.9-0.9,15.1-3.1c-0.5-0.6-0.6-1.1-0.2-1.1
		c0.3,0,1.4,0.9,2.3,2.1c1.5,2.1,1.2,2.3-7.2,3.7c-4.9,0.8-9.8,1.8-11,2.4C44.4,933.3,43.6,932.9,43.2,931L43.2,931z M28.2,932.9
		c5-2.6,9-3.2,8.2-1.4c-0.3,0.6-3.2,1.7-6.7,2.4l-6.3,1.4L28.2,932.9L28.2,932.9z"/>
</g>
</svg>
