<svg width="70" height="70" viewBox="0 0 70 70" fill="none" xmlns="http://www.w3.org/2000/svg">
<circle cx="35" cy="35" r="35" fill="white"/>
<path d="M25.279 26C20.6984 26 17 29.8049 17 34.5175C17 39.23 20.6984 43.0349 25.279 43.0349C29.8596 43.0349 33.558 39.23 33.558 34.5175C33.558 29.8049 29.8256 26 25.279 26ZM25.279 39.8932C22.3949 39.8932 20.0198 37.4846 20.0198 34.4825C20.0198 31.4805 22.3949 29.1068 25.279 29.1068C28.1631 29.1068 30.5382 31.5154 30.5382 34.5175C30.5042 37.4846 28.1631 39.8932 25.279 39.8932Z" fill="black"/>
<path d="M44.7211 26C40.1745 26 36.4761 29.8049 36.4761 34.5175C36.4761 39.23 40.1745 43.0349 44.7551 43.0349C49.3356 43.0349 53.034 39.23 53.034 34.5175C53.034 29.8049 49.3017 26 44.7211 26ZM44.7211 39.8932C41.8371 39.8932 39.4619 37.4846 39.4619 34.4825C39.4619 31.4805 41.8371 29.1068 44.7211 29.1068C47.6052 29.1068 49.9803 31.5154 49.9803 34.5175C49.9803 37.4846 47.6391 39.8932 44.7211 39.8932Z" fill="black"/>
<path d="M38.1721 32.807H31.8271V35.9138H38.1721V32.807Z" fill="black"/>
</svg>
